<?xml version="1.0" encoding="UTF-8"?>
<svg width="73px" height="22px" viewBox="0 0 73 22" version="1.1" xmlns="http://www.w3.org/2000/svg" xmlns:xlink="http://www.w3.org/1999/xlink">
    <!-- Generator: Sketch 60.1 (88133) - https://sketch.com -->
    <title>orderla-logo-form</title>
    <desc>Created with Sketch.</desc>
    <defs>
        <path d="M1.09065,11.89951 C1.34447,10.64854 2.37788,8.98058 3.73763,6.62368 C4.13649,6.60555 4.58974,6.53303 5.06112,6.3336 C4.15462,7.43953 3.19373,8.83554 3.19373,9.99586 C3.19373,10.97488 3.79202,11.75447 4.89795,11.75447 C5.93136,11.75447 7.00103,10.97488 7.43615,9.94147 C7.63558,9.45196 7.61745,9.01684 7.49054,8.76302 C7.32737,8.43668 7.07355,8.45481 6.92851,8.78115 C6.36648,10.03212 5.64128,11.0474 5.02486,11.0474 C4.77104,11.0474 4.626,10.75732 4.626,10.28594 C4.626,9.21627 5.65941,7.784 6.63843,6.65994 C6.83786,6.42425 6.92851,6.17043 6.92851,5.95287 C6.92851,5.51775 6.65656,5.04637 6.40274,4.79255 C6.16705,4.55686 5.98575,4.59312 5.67754,4.81068 C5.13364,5.20954 4.64413,5.46336 4.20901,5.57214 C4.40844,4.99198 4.53535,4.46621 4.53535,4.12174 C4.53535,3.70475 4.37218,3.48719 3.99145,3.48719 C3.42942,3.48719 2.2691,4.77442 2.2691,5.69905 C2.2691,5.93474 2.39601,6.17043 2.61357,6.36986 C1.61642,7.6027 0.69179,9.08936 0.38358,9.66952 C0.12976,10.1409 0.00285,10.57602 0.00285,10.97488 C0.00285,11.37374 0.14789,11.75447 0.4561,12.04455 C0.78244,12.38902 1.01813,12.22585 1.09065,11.89951 Z M12.00491,11.71821 C13.05645,11.71821 14.18051,10.77545 14.67002,9.79643 C14.90571,9.28879 14.83319,8.78115 14.74254,8.61798 C14.57937,8.29164 14.34368,8.27351 14.16238,8.61798 C13.54596,9.81456 12.65759,11.01114 12.02304,11.01114 C11.85987,11.01114 11.78735,10.88423 11.78735,10.61228 C11.78735,10.3222 11.89613,9.92334 12.11369,9.45196 C12.9658,7.65709 14.50685,5.11889 15.55839,3.12459 C16.02977,2.27248 16.26546,1.56541 16.26546,1.0759 C16.26546,0.82208 16.19294,0.58639 16.10229,0.36883 C15.92099,-0.06629 15.66717,-0.10255 15.34083,0.3507 C14.74254,1.20281 13.56409,3.2515 12.65759,4.95572 C12.51255,4.48434 12.11369,4.23052 11.49727,4.23052 C10.55451,4.23052 9.04972,5.08263 7.63558,7.13132 C7.00103,8.05595 6.67469,9.0531 6.67469,9.81456 C6.67469,10.88423 7.25485,11.66382 8.30639,11.66382 C9.10411,11.66382 9.81118,11.19244 10.37321,10.61228 C10.51825,11.41 11.11654,11.71821 12.00491,11.71821 Z M8.56021,10.8661 C8.36078,10.8661 8.28826,10.63041 8.28826,10.30407 C8.28826,9.70578 8.57834,8.79928 9.12224,7.94717 C10.08313,6.42425 11.27971,5.31832 11.78735,5.33645 C12.13182,5.35458 11.80548,6.40612 10.82646,8.27351 C10.01061,9.85082 9.14037,10.8661 8.56021,10.8661 Z M23.46307,11.68195 C24.53274,11.68195 25.87436,10.90236 26.32761,9.7783 C26.5633,9.27066 26.50891,8.76302 26.41826,8.56359 C26.23696,8.16473 25.96501,8.23725 25.80184,8.58172 C25.25794,9.85082 24.22453,10.95675 23.57185,10.95675 C23.31803,10.95675 23.17299,10.64854 23.17299,10.17716 C23.17299,9.9596 23.22738,9.63326 23.2999,9.39757 C23.62624,8.47294 24.51461,7.2401 25.2942,6.3336 C25.51176,6.09791 25.60241,5.86222 25.60241,5.64466 C25.60241,5.19141 25.2942,4.7019 25.05851,4.39369 C24.84095,4.10361 24.58713,4.23052 24.29705,4.41182 C23.69876,4.79255 23.22738,5.04637 22.71974,5.17328 C22.91917,4.57499 23.06421,4.03109 23.06421,3.65036 C23.06421,3.2515 22.91917,3.01581 22.53844,3.01581 C21.92202,3.03394 20.70731,4.35743 20.70731,5.31832 C20.70731,5.64466 20.88861,5.91661 21.21495,6.11604 C20.25406,8.3279 18.36854,10.93862 16.55554,10.93862 C16.0479,10.93862 15.72156,10.39472 15.72156,9.56074 C15.72156,9.2344 15.77595,8.85367 15.88473,8.49107 C16.30172,8.78115 16.73684,8.88993 17.17196,8.88993 C17.96968,8.88993 18.65862,8.43668 19.18439,7.784 C19.6739,7.14945 19.94585,6.40612 19.94585,5.88035 C19.94585,5.66279 19.87333,5.44523 19.78268,5.28206 C19.4926,4.91946 19.14813,4.64751 18.65862,4.3393 C18.47732,4.23052 18.27789,4.19426 18.0422,4.19426 C17.00879,4.19426 15.52213,5.20954 14.57937,7.0588 C14.21677,7.784 14.03547,8.5092 14.03547,9.14375 C14.03547,10.57602 14.9601,11.66382 16.62806,11.64569 C18.83992,11.60943 20.77983,9.39757 22.26649,6.29734 C22.66535,6.27921 23.1186,6.20669 23.60811,5.98913 C22.88291,6.84124 22.17584,7.83839 21.86763,8.81741 C21.74072,9.19814 21.68633,9.52448 21.68633,9.81456 C21.68633,10.88423 22.32088,11.68195 23.46307,11.68195 Z M16.53741,7.92904 C16.4105,7.92904 16.28359,7.89278 16.13855,7.82026 C16.17481,7.72961 16.21107,7.65709 16.30172,7.49392 C17.04505,6.02539 18.27789,4.97385 18.60423,5.22767 C18.78553,5.37271 18.36854,6.26108 17.8609,6.91376 C17.4983,7.40327 17.00879,7.92904 16.53741,7.92904 Z M27.4698,11.64569 C28.99272,11.64569 30.33434,10.15903 30.60629,9.61513 C30.84198,9.12562 30.86011,8.70863 30.78759,8.43668 C30.66068,7.9653 30.26182,7.9653 30.02613,8.41855 C29.33719,9.72391 28.28565,10.93862 27.45167,10.93862 C27.21598,10.93862 27.1072,10.63041 27.1072,10.19529 C27.1072,9.56074 27.34289,8.74489 27.70549,7.82026 C29.30093,6.75059 31.2771,4.61125 31.83913,2.45378 C31.92978,2.14557 31.94791,1.94614 31.94791,1.69232 C31.94791,1.22094 31.74848,0.7133 31.34962,0.36883 C31.00515,0.04249 30.67881,0.15127 30.33434,0.49574 C28.5576,2.36313 26.50891,5.71718 25.80184,8.72676 C25.71119,9.08936 25.67493,9.45196 25.67493,9.76017 C25.67493,11.01114 26.36387,11.64569 27.4698,11.64569 Z M28.3763,6.35173 C28.50321,6.04352 29.30093,4.68377 29.77231,3.88605 C30.38873,2.81638 30.86011,2.10931 30.93263,2.14557 C31.04141,2.21809 30.80572,3.01581 30.1893,4.04922 C29.77231,4.75629 29.15589,5.59027 28.3763,6.35173 Z M35.0844,11.73634 C36.19033,11.73634 37.35065,10.77545 37.82203,9.7783 C38.07585,9.25253 37.96707,8.76302 37.89455,8.59985 C37.71325,8.21912 37.55008,8.23725 37.35065,8.59985 C36.75236,9.7783 35.84586,11.01114 35.19318,11.01114 C35.01188,11.01114 34.93936,10.84797 34.93936,10.57602 C34.93936,9.36131 36.46228,7.38514 36.93366,6.38799 C37.40504,5.44523 37.24187,4.64751 36.93366,4.28491 C36.7161,4.03109 36.40789,4.04922 36.19033,4.41182 L35.84586,4.97385 C35.68269,4.50247 35.28383,4.17613 34.63115,4.17613 C33.70652,4.17613 32.21986,5.02824 30.76946,7.11319 C30.11678,8.01969 29.79044,9.03497 29.79044,9.81456 C29.79044,10.88423 30.3706,11.66382 31.44027,11.66382 C32.16547,11.66382 32.98132,11.10179 33.50709,10.59415 C33.65213,11.26496 34.1779,11.73634 35.0844,11.73634 Z M31.67596,10.8661 C31.49466,10.8661 31.42214,10.64854 31.42214,10.3222 C31.42214,9.74204 31.73035,8.78115 32.27425,7.92904 C33.19888,6.44238 34.44985,5.30019 34.81245,5.30019 C34.99375,5.30019 35.03001,5.4271 35.03001,5.64466 C35.03001,6.11604 34.70367,7.00441 33.9966,8.23725 C33.10823,9.76017 32.27425,10.8661 31.67596,10.8661 Z" id="path-1"></path>
        <filter x="0.0%" y="0.0%" width="100.0%" height="100.0%" filterUnits="objectBoundingBox" id="filter-2">
            <feOffset dx="0" dy="0" in="SourceAlpha" result="shadowOffsetOuter1"></feOffset>
            <feColorMatrix values="0 0 0 0 0.294185915   0 0 0 0 0.294185915   0 0 0 0 0.294185915  0 0 0 0.5 0" type="matrix" in="shadowOffsetOuter1"></feColorMatrix>
        </filter>
        <path d="M39.5010751,10.6122816 C39.6901033,10.1220565 39.5640845,9.63183143 39.1860281,9.49659693 C38.7922194,9.34445811 38.3038965,9.61492712 38.0833637,10.1389608 C37.8943355,10.5615686 38.0361066,11.119411 38.414163,11.2715498 C38.7922194,11.4236886 39.3120469,11.119411 39.5010751,10.6122816 Z M43.8802284,11.119411 C44.5418271,9.54730987 45.2979399,7.94140015 46.5266232,6.62286376 C47.4560119,5.6255093 47.7868112,5.45646617 47.91283,5.45646617 C48.0388488,5.45646617 47.6607924,5.96359556 47.3142407,6.52143788 C46.9519367,7.12999314 46.4321091,8.04282603 46.1800715,8.61757266 C46.0067957,9.04018048 45.9437863,9.41207536 45.9437863,9.71635299 C45.9437863,10.6291859 46.5266232,11.2546455 47.597783,11.2546455 C48.5744287,11.2546455 49.6928456,10.4094298 50.1339114,9.42897968 C50.3229396,9.04018048 50.3071872,8.3978166 50.1339114,8.21186916 C49.9921402,8.05973034 49.8346167,8.07663466 49.6928456,8.33019935 C49.1100086,9.36136243 48.3381435,10.5446643 47.8498206,10.5446643 C47.597783,10.5446643 47.4402595,10.2741953 47.4402595,9.88539612 C47.4402595,9.29374518 47.8498206,8.54995541 48.2908864,7.82306996 C48.9367328,6.75809826 49.2675321,5.98049987 49.2675321,5.40575324 C49.2675321,4.84791091 49.0154945,4.39149447 48.5586764,4.37459016 C48.0546012,4.35768584 47.2197266,4.93243248 46.5108709,5.60860499 C46.5108709,4.89862385 46.1800715,4.29006859 45.6759963,4.29006859 C45.1719211,4.29006859 44.2897895,4.93243248 43.6124385,5.64241361 C43.6439432,5.47337049 43.6596955,5.32123167 43.6596955,5.18599717 C43.6596955,4.91552817 43.5809338,4.62815485 43.4391626,4.37459016 C43.2816391,4.07031253 43.0453539,4.05340821 42.8405733,4.37459016 C41.87968,5.94669124 40.7455108,8.29639072 40.4147114,9.31064949 C40.2886926,9.69944868 40.2414356,9.986822 40.2414356,10.2234824 C40.2414356,10.6122816 40.3989591,10.9165592 40.619492,11.119411 C40.8872819,11.3729756 41.0605578,11.2715498 41.1708242,11.0010808 C41.7851659,9.44588399 42.509774,7.90759153 43.3919056,6.89333276 C44.3370466,5.77764812 44.9513882,5.40575324 45.077407,5.40575324 C45.2191782,5.40575324 44.7781124,6.04811712 44.3527989,6.8088112 C43.9274855,7.51879233 43.4076579,8.43162522 43.187125,9.04018048 C43.0296015,9.4627883 42.9035827,10.0037263 42.9035827,10.2910996 C42.9035827,10.7306118 43.0138492,10.9672721 43.2501344,11.2208368 C43.502172,11.4913058 43.7227049,11.4405929 43.8802284,11.119411 Z M49.4723127,17.0528247 C50.8427671,16.4949824 51.9139269,13.7902924 52.7803062,11.5589231 C54.0719988,10.9841765 55.1116539,10.3587169 55.7417479,9.3275538 C56.0095379,8.88804167 56.0410426,8.44852954 55.9622808,8.17806053 C55.8992714,7.95830447 55.6629862,7.99211309 55.4582056,8.29639072 C54.9541304,9.0570848 54.1350082,9.91920475 53.1741149,10.5446643 C53.8199612,8.93875461 54.6390834,7.29903627 55.0959016,6.35239475 C55.3006821,5.92978693 55.3794439,5.55789205 55.3794439,5.2198058 C55.3794439,4.86481523 55.3164345,4.61125054 55.0801492,4.35768584 C54.9068734,4.1717384 54.7020928,4.20554703 54.4815599,4.50982466 C54.1035035,5.11837992 53.6781901,6.149543 52.6227827,8.05973034 C51.8509175,9.4627883 51.1420618,10.4601428 50.7325007,10.4601428 C50.3229396,10.4601428 50.4647107,9.78397025 50.6852436,9.17541499 C50.9845383,8.38091229 51.3153376,7.68783546 51.8509175,6.77500257 C52.2132216,6.149543 52.4022498,5.65931793 52.4022498,5.23671011 C52.4022498,4.9662411 52.2604786,4.66196347 52.1029551,4.42530309 C51.9296793,4.15483409 51.693394,4.1717384 51.4886135,4.45911172 C50.5119678,5.89597831 49.7401026,7.6033139 49.3777986,8.6682856 C49.2360274,9.09089342 49.173018,9.49659693 49.173018,9.8515875 C49.173018,10.5615686 49.5195697,11.2039325 50.3071872,11.2039325 C50.7797577,11.2039325 51.1893188,11.0517937 51.5988799,10.7306118 L51.3625947,11.3222627 C49.8346167,11.9815309 48.5586764,13.012694 48.0703535,14.4664649 C47.9758394,14.7707425 47.9285824,15.0581158 47.9285824,15.2609676 C47.9285824,15.8019056 48.1648676,16.309035 48.4011529,16.6640255 C48.7792093,17.2049636 49.1100086,17.2049636 49.4723127,17.0528247 Z M48.9839898,16.0047573 C48.8264663,15.8526185 48.9367328,15.1595417 49.3305415,14.365039 C49.6613409,13.7057708 50.1969208,12.9788854 50.9530336,12.421043 C50.5749772,13.3338759 50.1969208,14.1621873 49.8661214,14.7876468 C49.4250556,15.6159582 49.0942563,16.1061832 48.9839898,16.0047573 Z" id="path-3"></path>
        <filter x="-0.0%" y="0.0%" width="100.0%" height="100.0%" filterUnits="objectBoundingBox" id="filter-4">
            <feOffset dx="0" dy="0" in="SourceAlpha" result="shadowOffsetOuter1"></feOffset>
            <feColorMatrix values="0 0 0 0 0.294185915   0 0 0 0 0.294185915   0 0 0 0 0.294185915  0 0 0 0.5 0" type="matrix" in="shadowOffsetOuter1"></feColorMatrix>
        </filter>
    </defs>
    <g id="Web-Customer" stroke="none" stroke-width="1" fill="none" fill-rule="evenodd" opacity="0.784505208">
        <g id="Mobile" transform="translate(-245.000000, -11.000000)">
            <g id="orderla-logo-form" transform="translate(244.000000, 11.000000)">
                <g id="Group" transform="translate(17.130000, 4.860000)" fill-rule="nonzero">
                    <g id="rdela">
                        <use fill="black" fill-opacity="1" filter="url(#filter-2)" xlink:href="#path-1"></use>
                        <use fill="#FFFFFF" xlink:href="#path-1"></use>
                    </g>
                    <g id=".my">
                        <use fill="black" fill-opacity="1" filter="url(#filter-4)" xlink:href="#path-3"></use>
                        <use fill="#FFFFFF" xlink:href="#path-3"></use>
                    </g>
                </g>
                <path d="M5.2587075,6.98201548 C5.62614526,5.83501778 7.03666845,2.89127426 10.2335389,2.31852638 C11.111006,2.16132032 11.7158305,2.23219322 12.1133656,2.55631718 C12.7178195,3.04895794 12.939787,4.08472534 12.3265547,5.21443335 C11.8123927,6.1596028 10.6950307,7.16355718 8.94813378,7.84776765 C8.63963654,7.96868018 8.31483661,8.09028429 7.96620965,8.19217817 C7.54986379,8.31481967 7.09464226,8.36657346 6.62437208,8.34421213 C6.5453667,9.19670887 6.63691262,10.0743333 6.85888015,10.9060824 C7.63012323,13.7848149 10.4702575,15.9845983 13.4263599,15.0076567 C14.848896,14.5199208 16.421549,13.4436186 16.2885557,9.77544248 C16.2096545,7.59921363 14.5381645,4.6194714 12.9786627,3.08319152 C12.9121978,3.03743148 12.8958951,2.94671827 12.9422951,2.88055641 C12.9874411,2.81439455 13.0777329,2.79779645 13.1441978,2.84355648 C15.1469217,3.91885962 17.4820168,6.70373816 17.880759,9.27877724 C18.3080568,11.553076 17.7089736,15.6234927 14.0659273,16.7219866 C10.2470543,17.8886062 6.06130193,15.2476376 5.12953995,11.3429351 C4.86744271,10.2430806 4.81978867,9.09320129 5.0116589,7.98919727 C4.67682653,7.85606669 4.34575633,7.68524461 4.02597261,7.47580889 C3.56698892,7.17589049 3.14186468,6.79113736 2.75436206,6.34218187 C1.70848119,5.12694755 0.966081337,3.40812233 1.00119484,1.23100519 C0.998686736,1.10651946 1.09650293,1.00312715 1.22190831,1.00006369 C1.34605964,0.997133388 1.4501461,1.09568459 1.45265421,1.22017032 C1.5805677,3.20030032 2.356827,4.71752781 3.3964376,5.74465036 C3.7576051,6.1013942 4.15764826,6.38459924 4.55894548,6.62550218 C4.78969137,6.76301281 5.02294538,6.8824269 5.2587075,6.98201548 Z M6.78735825,7.33935274 C7.09125382,7.34672077 7.3863952,7.31137727 7.66152699,7.22975337 C8.05421509,7.10933222 8.41688881,6.97429014 8.74454576,6.81518686 C9.67499146,6.36285921 10.3203006,5.76305595 10.755509,5.19456679 C11.0856672,4.76296171 11.2745076,4.34332968 11.3095244,3.98551998 C11.3257822,3.82319318 11.3307846,3.67571756 11.2219825,3.60537595 C11.0806648,3.51339077 10.8680629,3.54850401 10.5929312,3.63127916 C9.59745431,3.93474968 8.79331913,4.39409998 8.17927499,4.9746773 C7.47143593,5.64344067 7.02247087,6.46071579 6.78735825,7.33935274 Z" id="Shape" fill="#FFFFFF" transform="translate(9.500000, 9.000000) rotate(4.636599) translate(-9.500000, -9.000000) "></path>
            </g>
        </g>
    </g>
</svg>