<?xml version="1.0" encoding="UTF-8"?>
<svg width="32px" height="30px" viewBox="0 0 32 30" version="1.1" xmlns="http://www.w3.org/2000/svg" xmlns:xlink="http://www.w3.org/1999/xlink">
    <title>analytics</title>
    <g id="Welcome" stroke="none" stroke-width="1" fill="none" fill-rule="evenodd">
        <g id="Desktop-HD" transform="translate(-266.000000, -2676.000000)" fill="#4C4C4C" fill-rule="nonzero">
            <g id="analytics" transform="translate(266.000000, 2676.000000)">
                <path d="M2,12 C2,11.4477153 1.55228475,11 1,11 C0.44771525,11 0,11.4477153 0,12 L0,29 C0,29.5522847 0.44771525,30 1,30 L1,30 C1.55228475,30 2,29.5522847 2,29 L2,12 Z" id="Path"></path>
                <path d="M8,1 C8,0.44771525 7.55228475,0 7,0 C6.44771525,0 6,0.44771525 6,1 L6,29 C6,29.5522847 6.44771525,30 7,30 L7,30 C7.55228475,30 8,29.5522847 8,29 L8,1 Z" id="Path"></path>
                <path d="M13,30 C13.5522847,30 14,29.5522847 14,29 L14,20 C14,19.4477153 13.5522847,19 13,19 C12.4477153,19 12,19.4477153 12,20 L12,29 C12,29.5522847 12.4477153,30 13,30 Z" id="Path"></path>
                <path d="M19,30 C19.5522847,30 20,29.5522847 20,29 L20,14 C20,13.4477153 19.5522847,13 19,13 C18.4477153,13 18,13.4477153 18,14 L18,29 C18,29.5522847 18.4477153,30 19,30 Z" id="Path"></path>
                <path d="M25,30 C25.5522847,30 26,29.5522847 26,29 L26,1 C26,0.44771525 25.5522847,0 25,0 C24.4477153,0 24,0.44771525 24,1 L24,29 C24,29.5522847 24.4477153,30 25,30 Z" id="Path"></path>
                <path d="M31,30 C31.5522847,30 32,29.5522847 32,29 L32,14 C32,13.4477153 31.5522847,13 31,13 C30.4477153,13 30,13.4477153 30,14 L30,29 C30,29.5522847 30.4477153,30 31,30 Z" id="Path"></path>
            </g>
        </g>
    </g>
</svg>