<?xml version="1.0" encoding="UTF-8"?>
<svg width="46px" height="48px" viewBox="0 0 46 48" version="1.1" xmlns="http://www.w3.org/2000/svg" xmlns:xlink="http://www.w3.org/1999/xlink">
    <title>automation</title>
    <g id="Welcome" stroke="none" stroke-width="1" fill="none" fill-rule="evenodd">
        <g id="Desktop-HD" transform="translate(-946.000000, -2750.000000)" fill-rule="nonzero">
            <g id="automation" transform="translate(946.000000, 2750.000000)">
                <path d="M16,23 C16,19.1340129 19.1340129,16 23,16 C26.8659992,16 30,19.1340129 30,23 L46.0000121,23 L46.0000121,20 C46.001805,19.4785753 45.602641,19.043282 45.0830061,19 L39.4000061,18.5290061 C39.024656,17.1455128 38.4731429,15.8159662 37.7590061,14.5730061 L41.4500061,10.2110061 C41.7859978,9.81405661 41.7616515,9.22583231 41.3940061,8.85800606 L37.1420061,4.61500606 C36.7741798,4.24736063 36.1859555,4.22301432 35.7890061,4.55900606 L31.4280061,8.24900606 C30.1846546,7.53298434 28.854879,6.97882716 27.4710061,6.60000606 L27,0.917006056 C26.9567301,0.397371103 26.5214368,-0.00179286821 26,0 L20,0 C19.4785753,-0.00179286821 19.043282,0.397371103 19,0.917006056 L18.5290061,6.60000606 C17.1455128,6.97535608 15.8159662,7.52686924 14.5730061,8.24100606 L10.2110061,4.55400606 C9.81405661,4.21801432 9.22583231,4.24236063 8.85800606,4.61000606 L4.61500606,8.85800606 C4.24736063,9.22583231 4.22301432,9.81405661 4.55900606,10.2110061 L8.24900606,14.5720061 C7.53298434,15.8153575 6.97882716,17.1451331 6.60000606,18.5290061 L0.917006056,19 C0.397371103,19.043282 -0.00179286821,19.4785753 0,20 L0,23 L16,23 Z" id="Path" fill="#B3B3B3"></path>
                <path d="M23.0000061,16.0000061 C26.8659993,16.0000061 30.0000061,19.1340128 30.0000061,23.0000061 L34.0000061,23.0000061 C34.0000061,16.9248738 29.0751383,12.0000061 23.0000061,12.0000061 C16.9248738,12.0000061 12.0000061,16.9248738 12.0000061,23.0000061 L16.0000061,23.0000061 C16.0000061,19.1340128 19.1340128,16.0000061 23.0000061,16.0000061 Z" id="Path" fill="#969696"></path>
                <path d="M9.00000606,25.0000061 L9.00000606,33.5860061 L5.28600606,37.3000061 C4.88529522,37.1047358 4.44575806,37.0021999 4.00000606,37.0000061 C2.34315181,37.0000061 1.00000606,38.3431518 1.00000606,40.0000061 C1.00000606,41.6568603 2.34315181,43.0000061 4.00000606,43.0000061 C5.65686031,43.0000061 7.00000606,41.6568603 7.00000606,40.0000061 C6.99781223,39.554254 6.89527635,39.1147169 6.70000606,38.7140061 L10.7070061,34.7070061 C10.8945554,34.5195133 11.0000061,34.2652009 11.0000061,34.0000061 L11.0000061,25.0000061 L9.00000606,25.0000061 Z" id="Path" fill="#5A7A84"></path>
                <path d="M29.0000061,41.1840061 L29.0000061,25.0000061 L27.0000061,25.0000061 L27.0000061,41.1840061 C25.6224594,41.6710424 24.796134,43.0796723 25.0432104,44.5197391 C25.2902868,45.9598059 26.5388972,47.0124332 28.0000061,47.0124332 C29.461115,47.0124332 30.7097253,45.9598059 30.9568017,44.5197391 C31.2038781,43.0796723 30.3775527,41.6710424 29.0000061,41.1840061 Z" id="Path" fill="#5A7A84"></path>
                <path d="M19.0000061,36.1840061 L19.0000061,25.0000061 L17.0000061,25.0000061 L17.0000061,36.1840061 C15.6224594,36.6710424 14.796134,38.0796723 15.0432104,39.5197391 C15.2902868,40.9598059 16.5388972,42.0124332 18.0000061,42.0124332 C19.461115,42.0124332 20.7097253,40.9598059 20.9568017,39.5197391 C21.2038781,38.0796723 20.3775527,36.6710424 19.0000061,36.1840061 Z" id="Path" fill="#223E49"></path>
                <path d="M42.0000061,37.0000061 C41.554254,37.0021999 41.1147169,37.1047358 40.7140061,37.3000061 L37.0000061,33.5860061 L37.0000061,25.0000061 L35.0000061,25.0000061 L35.0000061,34.0000061 C35.0000061,34.2652009 35.1054567,34.5195133 35.2930061,34.7070061 L39.3000061,38.7140061 C39.1047358,39.1147169 39.0021999,39.554254 39.0000061,40.0000061 C39.0000061,41.6568603 40.3431518,43.0000061 42.0000061,43.0000061 C43.6568603,43.0000061 45.0000061,41.6568603 45.0000061,40.0000061 C45.0000061,38.3431518 43.6568603,37.0000061 42.0000061,37.0000061 Z" id="Path" fill="#223E49"></path>
            </g>
        </g>
    </g>
</svg>