<?xml version="1.0" encoding="UTF-8"?>
<svg width="45px" height="46px" viewBox="0 0 45 46" version="1.1" xmlns="http://www.w3.org/2000/svg" xmlns:xlink="http://www.w3.org/1999/xlink">
    <title>booking-calendar</title>
    <g id="Welcome" stroke="none" stroke-width="1" fill="none" fill-rule="evenodd">
        <g id="Desktop-HD" transform="translate(-472.000000, -2757.000000)" fill-rule="nonzero">
            <g id="booking-calendar" transform="translate(472.000000, 2757.000000)">
                <path d="M0,40 C0,41.1045695 0.8954305,42 2,42 L41,42 C42.6568542,42 44,40.6568542 44,39 L44,14 L0,14 L0,40 Z" id="Path" fill="#E6E6E6"></path>
                <path d="M38,30 L35,30 L35,24 L38,24 C38.55273,24 39,23.55273 39,23 C39,22.44727 38.55273,22 38,22 L35,22 L35,17 C35,16.44727 34.55273,16 34,16 C33.44727,16 33,16.44727 33,17 L33,22 L27,22 L27,17 C27,16.44727 26.55273,16 26,16 C25.44727,16 25,16.44727 25,17 L25,22 L19,22 L19,17 C19,16.44727 18.55273,16 18,16 C17.44727,16 17,16.44727 17,17 L17,22 L11,22 L11,17 C11,16.44727 10.55273,16 10,16 C9.44727,16 9,16.44727 9,17 L9,22 L6,22 C5.44727,22 5,22.44727 5,23 C5,23.55273 5.44727,24 6,24 L9,24 L9,30 L6,30 C5.44727,30 5,30.44727 5,31 C5,31.55273 5.44727,32 6,32 L9,32 L9,37 C9,37.55273 9.44727,38 10,38 C10.55273,38 11,37.55273 11,37 L11,32 L17,32 L17,37 C17,37.55273 17.44727,38 18,38 C18.55273,38 19,37.55273 19,37 L19,32 L25,32 L25,37 C25,37.55273 25.44727,38 26,38 C26.55273,38 27,37.55273 27,37 L27,32 L33,32 L33,37 C33,37.55273 33.44727,38 34,38 C34.55273,38 35,37.55273 35,37 L35,32 L38,32 C38.55273,32 39,31.55273 39,31 C39,30.44727 38.55273,30 38,30 Z M11,30 L11,24 L17,24 L17,30 L11,30 Z M19,30 L19,24 L25,24 L25,30 L19,30 Z M27,30 L27,24 L33,24 L33,30 L27,30 Z" id="Shape" fill="#B3B3B3"></path>
                <path d="M42,4 L2,4 C0.8954305,4 0,4.8954305 0,6 L0,14 L44,14 L44,6 C44,4.8954305 43.1045695,4 42,4 Z" id="Path" fill="#E86C60"></path>
                <path d="M8,9 L8,1 C8,0.44771525 8.44771525,0 9,0 L11,0 C11.5522847,0 12,0.44771525 12,1 L12,9 C12,9.55228475 11.5522847,10 11,10 L9,10 C8.44771525,10 8,9.55228475 8,9 Z" id="Path" fill="#444444"></path>
                <path d="M32,9 L32,1 C32,0.44771525 32.4477153,0 33,0 L35,0 C35.5522847,0 36,0.44771525 36,1 L36,9 C36,9.55228475 35.5522847,10 35,10 L33,10 C32.4477153,10 32,9.55228475 32,9 Z" id="Path" fill="#444444"></path>
                <path d="M25,36 C25,41.5228475 29.4771525,46 35,46 C40.5228475,46 45,41.5228475 45,36 C45,30.4771525 40.5228475,26 35,26 C29.4796656,26.0060624 25.0060624,30.4796656 25,36 Z" id="Path" fill="#72C472"></path>
                <path d="M40.707,32.293 C41.0973819,32.6834999 41.0973819,33.3165001 40.707,33.707 L33.707,40.707 C33.3165001,41.0973819 32.6834999,41.0973819 32.293,40.707 L29.293,37.707 C28.9140278,37.3146211 28.9194476,36.6909152 29.3051814,36.3051814 C29.6909152,35.9194476 30.3146211,35.9140278 30.707,36.293 L33,38.586 L39.293,32.293 C39.6834999,31.9026181 40.3165001,31.9026181 40.707,32.293 Z" id="Path" fill="#FFFFFF"></path>
            </g>
        </g>
    </g>
</svg>