<?xml version="1.0" encoding="UTF-8"?>
<svg width="34px" height="29px" viewBox="0 0 34 29" version="1.1" xmlns="http://www.w3.org/2000/svg" xmlns:xlink="http://www.w3.org/1999/xlink">
    <title>coupon</title>
    <g id="Welcome" stroke="none" stroke-width="1" fill="none" fill-rule="evenodd">
        <g id="Desktop-HD" transform="translate(-377.000000, -2837.000000)" fill="#C287CC" fill-rule="nonzero">
            <g id="coupon" transform="translate(394.000000, 2851.500000) rotate(-15.000000) translate(-394.000000, -2851.500000) translate(380.000000, 2841.000000)">
                <path d="M27.3913043,7.41176471 C27.7273043,7.41176471 28,7.13505882 28,6.79411765 L28,0.617647059 C28,0.276705882 27.7273043,0 27.3913043,0 L0.608695652,0 C0.272695652,0 0,0.276705882 0,0.617647059 L0,6.79411765 C0,7.13505882 0.272695652,7.41176471 0.608695652,7.41176471 C2.34408696,7.41176471 3.65217391,8.73908824 3.65217391,10.5 C3.65217391,12.2609118 2.34408696,13.5882353 0.608695652,13.5882353 C0.272695652,13.5882353 0,13.8649412 0,14.2058824 L0,20.3823529 C0,20.7232941 0.272695652,21 0.608695652,21 L27.3913043,21 C27.7273043,21 28,20.7232941 28,20.3823529 L28,14.2058824 C28,13.8649412 27.7273043,13.5882353 27.3913043,13.5882353 C25.655913,13.5882353 24.3478261,12.2609118 24.3478261,10.5 C24.3478261,8.73908824 25.655913,7.41176471 27.3913043,7.41176471 Z M7.91304348,6.79411765 C7.91304348,5.43158824 9.00504348,4.32352941 10.3478261,4.32352941 C11.6906087,4.32352941 12.7826087,5.43158824 12.7826087,6.79411765 C12.7826087,8.15664706 11.6906087,9.26470588 10.3478261,9.26470588 C9.00504348,9.26470588 7.91304348,8.15664706 7.91304348,6.79411765 Z M10.3478261,14.8235294 C10.192,14.8235294 10.0361739,14.763 9.91747826,14.6425588 C9.67947826,14.4010588 9.67947826,14.0107059 9.91747826,13.7692059 L17.2218261,6.35744118 C17.4598261,6.11594118 17.8445217,6.11594118 18.0825217,6.35744118 C18.3205217,6.59894118 18.3205217,6.98929412 18.0825217,7.23079412 L10.7781739,14.6425588 C10.6594783,14.763 10.5036522,14.8235294 10.3478261,14.8235294 Z M17.6521739,16.6764706 C16.3093913,16.6764706 15.2173913,15.5684118 15.2173913,14.2058824 C15.2173913,12.8433529 16.3093913,11.7352941 17.6521739,11.7352941 C18.9949565,11.7352941 20.0869565,12.8433529 20.0869565,14.2058824 C20.0869565,15.5684118 18.9949565,16.6764706 17.6521739,16.6764706 Z" id="Shape"></path>
            </g>
        </g>
    </g>
</svg>