<?xml version="1.0" encoding="UTF-8"?>
<svg width="38px" height="46px" viewBox="0 0 38 46" version="1.1" xmlns="http://www.w3.org/2000/svg" xmlns:xlink="http://www.w3.org/1999/xlink">
    <title>custom-fields</title>
    <g id="Welcome" stroke="none" stroke-width="1" fill="none" fill-rule="evenodd">
        <g id="Desktop-HD" transform="translate(-712.000000, -2752.000000)" fill-rule="nonzero">
            <g id="custom-fields" transform="translate(712.000000, 2752.000000)">
                <g id="todo">
                    <path d="M36,2 L2,2 C0.895,2 0,2.895 0,4 L0,44 C0,45.105 0.895,46 2,46 L36,46 C37.105,46 38,45.105 38,44 L38,4 C38,2.895 37.105,2 36,2 Z" id="Path" fill="#A67C52"></path>
                    <path d="M32,41 L6,41 C5.448,41 5,40.552 5,40 L5,8 C5,7.448 5.448,7 6,7 L32,7 C32.552,7 33,7.448 33,8 L33,40 C33,40.552 32.552,41 32,41 Z" id="Path" fill="#FFFFFF"></path>
                    <path d="M23,4 C23,1.791 21.209,0 19,0 C16.791,0 15,1.791 15,4 L12,4 C11.448,4 11,4.448 11,5 L11,9 C11,9.552 11.448,10 12,10 L26,10 C26.552,10 27,9.552 27,9 L27,5 C27,4.448 26.552,4 26,4 L23,4 Z" id="Path" fill="#EFD358"></path>
                    <circle id="Oval" fill="#B29930" cx="19" cy="4" r="1"></circle>
                </g>
                <g id="questionnaire" transform="translate(11.000000, 17.000000)">
                    <path d="M5.84674646,0.230534566 L0.779566194,0.230534566 C0.349023674,0.230534566 0,0.566736002 0,0.981461492 L0,5.86248651 C0,6.277212 0.349023674,6.61341343 0.779566194,6.61341343 L5.84674646,6.61341343 C6.27728898,6.61341343 6.62631265,6.277212 6.62631265,5.86248651 L6.62631265,0.981461492 C6.62631265,0.566736002 6.27728898,0.230534566 5.84674646,0.230534566 Z M0.779566194,5.86248651 L0.779566194,0.981461492 L5.84674646,0.981461492 L5.84674646,5.86248651 L0.779566194,5.86248651 Z" id="Shape" fill="#B3B3B3"></path>
                    <path d="M15.5913239,9.61712113 L10.5241436,9.61712113 C10.0936011,9.61712113 9.74457743,9.95332257 9.74457743,10.3680481 L9.74457743,15.2490731 C9.74457743,15.6637986 10.0936011,16 10.5241436,16 L15.5913239,16 C16.0218664,16 16.3708901,15.6637986 16.3708901,15.2490731 L16.3708901,10.3680481 C16.3708901,9.95332257 16.0218664,9.61712113 15.5913239,9.61712113 Z M10.5241436,15.2490731 L10.5241436,10.3680481 L15.5913239,10.3680481 L15.5913239,15.2490731 L10.5241436,15.2490731 Z" id="Shape" fill="#B3B3B3"></path>
                    <path d="M5.84674646,9.61712113 L0.779566194,9.61712113 C0.349023674,9.61712113 0,9.95332257 0,10.3680481 L0,15.2490731 C0,15.6637986 0.349023674,16 0.779566194,16 L5.84674646,16 C6.27728898,16 6.62631265,15.6637986 6.62631265,15.2490731 L6.62631265,10.3680481 C6.62631265,9.95332257 6.27728898,9.61712113 5.84674646,9.61712113 Z M0.779566194,15.2490731 L0.779566194,10.3680481 L5.84674646,10.3680481 L5.84674646,15.2490731 L0.779566194,15.2490731 Z" id="Shape" fill="#B3B3B3"></path>
                    <path d="M11.8525244,4.84347867 L9.93946898,3.00107946 L9.11273903,3.79743746 L11.4748246,6.07312151 C11.5845265,6.17872558 11.7332922,6.23801766 11.8883845,6.23795003 L11.912551,6.23795003 C12.0760054,6.23115144 12.2291225,6.15903822 12.3350759,6.03895433 L17,0.727648191 L16.1073967,0 L11.8525244,4.84347867 Z" id="Path" fill="#72C472"></path>
                </g>
            </g>
        </g>
    </g>
</svg>