<?xml version="1.0" encoding="UTF-8"?>
<svg width="46px" height="35px" viewBox="0 0 46 35" version="1.1" xmlns="http://www.w3.org/2000/svg" xmlns:xlink="http://www.w3.org/1999/xlink">
    <title>delivery</title>
    <defs>
        <path d="M10.2587075,8.98197561 C10.6261453,7.83497334 12.0366684,4.89121809 15.2335389,4.31846794 C16.111006,4.16126125 16.7158305,4.23213444 17.1133656,4.55625969 C17.7178195,5.04890241 17.939787,6.08467393 17.3265547,7.21438644 C16.8123927,8.15955965 15.6950307,9.16351802 13.9481338,9.84773121 C13.6396365,9.96864423 13.3148366,10.0902488 12.9662097,10.1921431 C12.5498638,10.3147851 12.0946423,10.3665391 11.6243721,10.3441777 C11.5453667,11.1966778 11.6369126,12.0743057 11.8588801,12.9060581 C12.6301232,15.7848021 15.4702575,17.9845943 18.4263599,17.0076488 C20.6499492,16.266434 21.5623965,14.1540858 21.2885557,11.7754137 C21.0393328,9.61058017 19.5381645,6.61942212 17.9786627,5.08313612 C17.9121978,5.0373759 17.8958951,4.94666233 17.9422951,4.8805002 C17.9874411,4.81433808 18.0777329,4.79773992 18.1441978,4.84350013 C20.1469217,5.91880755 22.4820168,8.70369717 22.880759,11.2787465 C23.3080568,13.5530543 22.7089736,17.6234872 19.0659273,18.7219855 C15.2470543,19.8886098 11.0613019,17.2476306 10.12954,13.3429126 C9.86744271,12.2430537 9.81978867,11.0931698 10.0116589,9.9891614 C9.67682653,9.8560303 9.34575633,9.68520753 9.02597261,9.47577098 C8.56698892,9.17585138 8.14186468,8.79109673 7.75436206,8.34213945 C6.70848119,7.12690029 5.96608134,5.40806823 6.00119484,3.23094242 C5.99868674,3.1064562 6.09650293,3.00306347 6.22190831,3.00006658 C6.34605964,2.99706969 6.4501461,3.09562128 6.45265421,3.22010751 C6.5805677,5.20024539 7.356827,6.71747892 8.3964376,7.74460556 C8.7576051,8.10135081 9.15764826,8.38455698 9.55894548,8.62546088 C9.78969137,8.76297206 10.0229454,8.88238663 10.2587075,8.98197561 Z M11.7984644,9.32314142 C12.103208,9.3305285 12.3991731,9.29509362 12.6750727,9.21325865 C13.0688566,9.09252611 13.4325425,8.95713484 13.7611138,8.79762015 C14.6941561,8.34412287 15.3412661,7.74276863 15.7776891,7.17280947 C16.1087686,6.74008835 16.2981361,6.31937123 16.3332505,5.9606363 C16.3495537,5.79788976 16.3545701,5.6500328 16.2454643,5.5795093 C16.1037522,5.48728626 15.8905571,5.5224903 15.6146575,5.60547949 C14.6164026,5.90973472 13.8100233,6.37027281 13.1942656,6.95235139 C12.4844511,7.62284406 12.0342331,8.44223249 11.7984644,9.32314142 Z" id="path-1"></path>
        <filter x="-8.8%" y="-9.4%" width="117.6%" height="118.8%" filterUnits="objectBoundingBox" id="filter-2">
            <feOffset dx="0" dy="0" in="SourceAlpha" result="shadowOffsetOuter1"></feOffset>
            <feGaussianBlur stdDeviation="0.5" in="shadowOffsetOuter1" result="shadowBlurOuter1"></feGaussianBlur>
            <feColorMatrix values="0 0 0 0 1   0 0 0 0 1   0 0 0 0 1  0 0 0 0.0527480332 0" type="matrix" in="shadowBlurOuter1" result="shadowMatrixOuter1"></feColorMatrix>
            <feOffset dx="0" dy="0" in="SourceAlpha" result="shadowOffsetOuter2"></feOffset>
            <feGaussianBlur stdDeviation="0.5" in="shadowOffsetOuter2" result="shadowBlurOuter2"></feGaussianBlur>
            <feColorMatrix values="0 0 0 0 1   0 0 0 0 1   0 0 0 0 1  0 0 0 0.0105714598 0" type="matrix" in="shadowBlurOuter2" result="shadowMatrixOuter2"></feColorMatrix>
            <feMerge>
                <feMergeNode in="shadowMatrixOuter1"></feMergeNode>
                <feMergeNode in="shadowMatrixOuter2"></feMergeNode>
            </feMerge>
        </filter>
    </defs>
    <g id="Welcome" stroke="none" stroke-width="1" fill="none" fill-rule="evenodd">
        <g id="Desktop-HD" transform="translate(-465.000000, -2839.000000)">
            <g id="delivery" transform="translate(465.000000, 2839.000000)">
                <g fill-rule="nonzero" id="Path">
                    <path d="M45.447,18.105 L41.858,16.311 L39.97,8.757 C39.859,8.312 39.459,8 39,8 L29,8 C28.448,8 28,8.448 28,9 L28,25 L0,25 L0,26 C0,27.105 0.895,28 2,28 L45,28 C45.552,28 46,27.552 46,27 L46,19 C46,18.621 45.786,18.275 45.447,18.105 Z" fill="#43A6DD"></path>
                    <polygon fill="#E6E6E6" points="39.969 17 38.219 10 32 10 32 17"></polygon>
                    <path d="M0,2 L0,25 L30,25 L30,2 C30,0.895 29.105,0 28,0 L2,0 C0.895,0 0,0.895 0,2 Z" fill="#58EFBE"></path>
                    <path d="M36,35 C32.691,35 30,32.309 30,29 C30,25.691 32.691,23 36,23 C39.309,23 42,25.691 42,29 C42,32.309 39.309,35 36,35 Z" fill="#444444"></path>
                    <path d="M36,32 C34.346,32 33,30.654 33,29 C33,27.346 34.346,26 36,26 C37.654,26 39,27.346 39,29 C39,30.654 37.654,32 36,32 Z" fill="#E6E6E6"></path>
                    <path d="M9,35 C5.691,35 3,32.309 3,29 C3,25.691 5.691,23 9,23 C12.309,23 15,25.691 15,29 C15,32.309 12.309,35 9,35 Z" fill="#444444"></path>
                    <path d="M9,32 C7.346,32 6,30.654 6,29 C6,27.346 7.346,26 9,26 C10.654,26 12,27.346 12,29 C12,30.654 10.654,32 9,32 Z" fill="#E6E6E6"></path>
                    <path d="M46,26 L45,26 C44.448,26 44,25.552 44,25 L44,23 C44,22.448 44.448,22 45,22 L46,22 L46,26 Z" fill="#EFD358"></path>
                </g>
                <g id="Shape-Copy" transform="translate(14.500000, 11.000000) rotate(7.636599) translate(-14.500000, -11.000000) ">
                    <use fill="black" fill-opacity="1" filter="url(#filter-2)" xlink:href="#path-1"></use>
                    <use fill="#FFFFFF" fill-rule="evenodd" xlink:href="#path-1"></use>
                </g>
            </g>
        </g>
    </g>
</svg>