<?xml version="1.0" encoding="UTF-8"?>
<svg width="64px" height="35px" viewBox="0 0 64 35" version="1.1" xmlns="http://www.w3.org/2000/svg" xmlns:xlink="http://www.w3.org/1999/xlink">
    <title>export-files</title>
    <g id="Welcome" stroke="none" stroke-width="1" fill="none" fill-rule="evenodd">
        <g id="Desktop-HD" transform="translate(-462.000000, -2914.000000)" fill-rule="nonzero">
            <g id="export-files" transform="translate(462.000000, 2914.000000)">
                <g id="cloud-forecast" fill="#A7DEFF">
                    <path d="M30.0625,26 L7.3125,26 C3.28055,26 0,22.71945 0,18.6875 C0,15.5501694 2.00585938,12.7933081 4.94641062,11.7899762 C5.56014875,5.13326937 11.1310144,0 17.875,0 C24.447605,0 29.9732388,4.95434875 30.763915,11.4083287 C34.4681675,11.7626031 37.375,14.8919956 37.375,18.6875 C37.375,22.71945 34.09445,26 30.0625,26 Z" id="Path"></path>
                </g>
                <g id="cloud-download" transform="translate(11.000000, 11.963550)" fill="#2A4B55">
                    <path d="M15.694712,10.707 L8.69471202,17.707 C8.30421217,18.0973819 7.67121187,18.0973819 7.28071202,17.707 L0.280712021,10.707 C-0.0982601888,10.3146211 -0.0928403531,9.69091522 0.292893445,9.30518142 C0.678627244,8.91944763 1.30233313,8.91402779 1.69471202,9.293 L6.98771202,14.586 L6.98771202,1 C6.98771202,0.44771525 7.43542727,0 7.98771202,0 C8.53999677,0 8.98771202,0.44771525 8.98771202,1 L8.98771202,14.586 L14.280712,9.293 C14.6642738,8.89563112 15.2973431,8.88443824 15.694712,9.268 C16.0920809,9.65156176 16.1032738,10.2846311 15.719712,10.682 L15.694712,10.707 Z" id="Path"></path>
                </g>
                <g id="file-pdf" transform="translate(44.000218, 6.000000)">
                    <polygon id="Path" fill="#870000" points="18.6956522 11.3043478 1.30434783 11.3043478 0 9.56521739 1.73913043 7.82608696 18.2608696 7.82608696 20 9.56521739"></polygon>
                    <path d="M17.3913043,20 L2.60869565,20 C2.12826087,20 1.73913043,19.6108696 1.73913043,19.1304348 L1.73913043,0.869565217 C1.73913043,0.389130435 2.12826087,0 2.60869565,0 L13.0434783,0 L18.2608696,5.2173913 L18.2608696,19.1304348 C18.2608696,19.6108696 17.8717391,20 17.3913043,20 Z" id="Path" fill="#E6E6E6"></path>
                    <path d="M13.0434783,0 L13.0434783,4.34782609 C13.0434783,4.82826087 13.4326087,5.2173913 13.9130435,5.2173913 L18.2608696,5.2173913 L13.0434783,0 Z" id="Path" fill="#B3B3B3"></path>
                    <path d="M19.1304348,17.3913043 L0.869565217,17.3913043 C0.389130435,17.3913043 0,17.0021739 0,16.5217391 L0,9.56521739 L20,9.56521739 L20,16.5217391 C20,17.0021739 19.6108696,17.3913043 19.1304348,17.3913043 Z" id="Path" fill="#BD0100"></path>
                    <path d="M8.29173913,12.8891304 C8.29173913,13.2708696 8.17913043,13.5656522 7.95434783,13.7730435 C7.72913043,13.9813043 7.41,14.0847826 6.99565217,14.0847826 L6.73652174,14.0847826 L6.73652174,15.2173913 L5.81391304,15.2173913 L5.81391304,11.8030435 L6.99565217,11.8030435 C7.42695652,11.8030435 7.75086957,11.8973913 7.96695652,12.0852174 C8.18347826,12.273913 8.29173913,12.5421739 8.29173913,12.8891304 Z M6.73652174,13.3330435 L6.90478261,13.3330435 C7.04347826,13.3330435 7.15347826,13.293913 7.23521739,13.2156522 C7.31695652,13.1378261 7.35782609,13.0304348 7.35782609,12.893913 C7.35782609,12.6634783 7.23043478,12.5482609 6.97478261,12.5482609 L6.73652174,12.5482609 L6.73652174,13.3330435 Z" id="Shape" fill="#FFFFFF"></path>
                    <path d="M11.733913,13.4378261 C11.733913,14.0078261 11.5769565,14.4465217 11.2630435,14.7547826 C10.9495652,15.0634783 10.5086957,15.2173913 9.94043478,15.2173913 L8.83565217,15.2173913 L8.83565217,11.8030435 L10.0173913,11.8030435 C10.5652174,11.8030435 10.9882609,11.9430435 11.2865217,12.2234783 C11.5847826,12.503913 11.733913,12.9082609 11.733913,13.4378261 Z M10.7765217,13.4704348 C10.7765217,13.1573913 10.7147826,12.9256522 10.5908696,12.7743478 C10.4673913,12.6230435 10.2791304,12.5478261 10.0269565,12.5478261 L9.75826087,12.5478261 L9.75826087,14.46 L9.96391304,14.46 C10.2443478,14.46 10.4495652,14.3782609 10.5804348,14.2156522 C10.7113043,14.0530435 10.7765217,13.8052174 10.7765217,13.4704348 Z" id="Shape" fill="#FFFFFF"></path>
                    <polygon id="Path" fill="#FFFFFF" points="13.253913 15.2173913 12.3456522 15.2173913 12.3456522 11.8030435 14.3634783 11.8030435 14.3634783 12.5430435 13.2543478 12.5430435 13.2543478 13.1947826 14.2773913 13.1947826 14.2773913 13.9347826 13.2543478 13.9347826 13.2543478 15.2173913"></polygon>
                </g>
                <g id="file-xlsx" transform="translate(27.000000, 12.000000)">
                    <polygon id="Path" fill="#0E512B" points="21.5 13 1.5 13 0 11 2 9 21 9 23 11"></polygon>
                    <path d="M20,23 L3,23 C2.4475,23 2,22.5525 2,22 L2,1 C2,0.4475 2.4475,0 3,0 L15,0 L21,6 L21,22 C21,22.5525 20.5525,23 20,23 Z" id="Path" fill="#E6E6E6"></path>
                    <path d="M15,0 L15,5 C15,5.5525 15.4475,6 16,6 L21,6 L15,0 Z" id="Path" fill="#B3B3B3"></path>
                    <path d="M22,20 L1,20 C0.4475,20 0,19.5525 0,19 L0,11 L23,11 L23,19 C23,19.5525 22.5525,20 22,20 Z" id="Path" fill="#1B7343"></path>
                    <polygon id="Path" fill="#FFFFFF" points="8.296 17.5 7.0685 17.5 6.303 16.2725 5.546 17.5 4.3455 17.5 5.648 15.491 4.4235 13.5735 5.6 13.5735 6.309 14.7875 6.991 13.5735 8.202 13.5735 6.9585 15.574"></polygon>
                    <polygon id="Path" fill="#FFFFFF" points="8.7365 17.5 8.7365 13.5735 9.7975 13.5735 9.7975 16.6435 11.3095 16.6435 11.3095 17.5"></polygon>
                    <path d="M14.505,16.3075 C14.505,16.551 14.443,16.767 14.3195,16.956 C14.196,17.145 14.0175,17.292 13.785,17.3965 C13.5525,17.5015 13.279,17.5535 12.966,17.5535 C12.7045,17.5535 12.4855,17.535 12.308,17.4985 C12.1305,17.462 11.9465,17.398 11.755,17.3065 L11.755,16.361 C11.9575,16.465 12.1675,16.546 12.386,16.604 C12.6045,16.662 12.805,16.691 12.9875,16.691 C13.145,16.691 13.2605,16.664 13.334,16.6095 C13.4075,16.555 13.444,16.4845 13.444,16.3985 C13.444,16.345 13.429,16.298 13.4,16.2575 C13.37,16.2175 13.323,16.1765 13.2575,16.1355 C13.1925,16.0945 13.018,16.01 12.7355,15.883 C12.4795,15.767 12.2875,15.654 12.1595,15.5445 C12.0315,15.435 11.9365,15.31 11.875,15.1685 C11.813,15.027 11.782,14.86 11.782,14.6665 C11.782,14.3045 11.9135,14.0225 12.177,13.8205 C12.4405,13.6185 12.802,13.5175 13.262,13.5175 C13.6685,13.5175 14.083,13.6115 14.5055,13.799 L14.1805,14.618 C13.8135,14.45 13.4965,14.366 13.23,14.366 C13.092,14.366 12.992,14.39 12.929,14.4385 C12.866,14.487 12.835,14.547 12.835,14.618 C12.835,14.695 12.875,14.764 12.9545,14.825 C13.034,14.886 13.25,14.997 13.603,15.158 C13.9415,15.3105 14.176,15.4735 14.308,15.648 C14.439,15.823 14.505,16.0425 14.505,16.3075 Z" id="Path" fill="#FFFFFF"></path>
                    <polygon id="Path" fill="#FFFFFF" points="18.649 17.5 17.4215 17.5 16.656 16.2725 15.899 17.5 14.6985 17.5 16.001 15.491 14.7765 13.5735 15.953 13.5735 16.662 14.7875 17.344 13.5735 18.555 13.5735 17.3115 15.574"></polygon>
                </g>
            </g>
        </g>
    </g>
</svg>