<?xml version="1.0" encoding="UTF-8"?>
<svg width="60px" height="60px" viewBox="0 0 60 60" version="1.1" xmlns="http://www.w3.org/2000/svg" xmlns:xlink="http://www.w3.org/1999/xlink">
    <title>fb-pixel</title>
    <g id="Welcome" stroke="none" stroke-width="1" fill="none" fill-rule="evenodd">
        <g id="Desktop-HD" transform="translate(-927.000000, -2875.000000)">
            <g id="fb-pixel" transform="translate(927.000000, 2875.000000)">
                <circle id="Oval" fill="#39579A" cx="30" cy="30" r="30"></circle>
                <g id="logo-fb-simple" transform="translate(20.000000, 8.000000)" fill="#FFFFFF" fill-rule="nonzero">
                    <path d="M5.27763927,28 L5.23636364,15.2727273 L0,15.2727273 L0,10.1818182 L5.23636364,10.1818182 L5.23636364,7 C5.23636364,2.27640636 8.24507345,0 12.5792378,0 C14.6553447,0 16.4396553,0.150277273 16.9596524,0.217445455 L16.9596524,5.15388364 L13.9536785,5.15521364 C11.5965164,5.15521364 11.1401149,6.24419091 11.1401149,7.84218273 L11.1401149,10.1818182 L18,10.1818182 L15.3818182,15.2727273 L11.1401149,15.2727273 L11.1401149,28 L5.27763927,28 Z" id="White_1_"></path>
                </g>
                <path d="M14,40.5909385 L14,50.8647249 L15.3251009,50.8647249 L15.3249938,47.1982084 L18.0047495,47.1980583 C18.6722077,47.1980583 19.2611415,47.0580367 19.7715507,46.7779935 C20.2819599,46.4979504 20.6831711,46.1087379 20.975184,45.610356 C21.267197,45.1119741 21.4132035,44.5376483 21.4132035,43.8873786 L21.4132035,43.8731392 C21.4132035,43.2228695 21.267197,42.6509169 20.975184,42.1572816 C20.6831711,41.6636462 20.2819599,41.2791802 19.7715507,41.0038835 C19.2611415,40.7285868 18.6722077,40.5909385 18.0047495,40.5909385 L15.3251009,40.5909385 L14.6625505,40.5909385 L14,40.5909385 Z M15.3249938,41.7302472 L17.6661126,41.7300971 C18.4268186,41.7300971 19.0157524,41.9199569 19.4329138,42.2996764 C19.8500752,42.6793959 20.0586559,43.20863 20.0586559,43.8873786 L20.0586559,43.9016181 C20.0586559,44.5756203 19.8500752,45.1036677 19.4329138,45.4857605 C19.0157524,45.8678533 18.4268186,46.0588997 17.6661126,46.0588997 L15.3249938,46.0595469 L15.3249938,41.7302472 Z M24.1811921,41.7087379 C24.4265812,41.7087379 24.6351619,41.6244876 24.8069342,41.4559871 C24.9787066,41.2874865 25.0645927,41.0869471 25.0645927,40.8543689 C25.0645927,40.6170442 24.9787066,40.4153182 24.8069342,40.2491909 C24.6351619,40.0830636 24.4265812,40 24.1811921,40 C23.9407108,40 23.7333571,40.0830636 23.5591308,40.2491909 C23.3849046,40.4153182 23.2977915,40.6170442 23.2977915,40.8543689 C23.2977915,41.0869471 23.3849046,41.2874865 23.5591308,41.4559871 C23.7333571,41.6244876 23.9407108,41.7087379 24.1811921,41.7087379 Z M24.8142959,50.8647249 L24.8142959,43.189644 L23.533365,43.189644 L23.533365,50.8647249 L24.8142959,50.8647249 Z M28.1196865,50.8647249 L30.0042745,47.9669903 L30.1220613,47.9669903 L31.9992876,50.8647249 L33.5010686,50.8647249 L30.7698884,46.9773463 L33.4642603,43.189644 L32.0287343,43.189644 L30.1662313,46.0446602 L30.0484445,46.0446602 L28.1638566,43.189644 L26.6547138,43.189644 L29.4006174,47.0271845 L26.6841605,50.8647249 L28.1196865,50.8647249 Z M38.1830919,51 C38.6493311,51 39.0701734,50.9418554 39.4456186,50.8255663 C39.8210639,50.7092772 40.1462044,50.5526429 40.4210401,50.3556634 C40.6958759,50.1586839 40.9204069,49.937972 41.0946331,49.6935275 C41.2688593,49.4490831 41.3903269,49.1963323 41.4590359,48.9352751 L41.4737592,48.8783172 L40.1928283,48.8783172 L40.1633816,48.9423948 C40.0946727,49.0942826 39.974432,49.2437972 39.8026597,49.3909385 C39.6308874,49.5380798 39.4124911,49.6591154 39.1474709,49.7540453 C38.8824507,49.8489752 38.5708066,49.8964401 38.2125386,49.8964401 C37.731576,49.8964401 37.3144146,49.7932039 36.9610544,49.5867314 C36.6076941,49.3802589 36.3353123,49.083603 36.1439088,48.6967638 C35.9844059,48.3743977 35.8913626,47.9968207 35.8647788,47.5640327 L35.8594645,47.3837877 L41.5694609,47.3831715 L41.5694609,46.8990291 C41.5694609,46.1348436 41.4308161,45.4644013 41.1535265,44.8877023 C40.8762368,44.3110032 40.4787066,43.8612729 39.9609356,43.5385113 C39.4431647,43.2157497 38.8235573,43.0543689 38.1021135,43.0543689 C37.3855775,43.0543689 36.7598354,43.2228695 36.2248872,43.5598706 C35.689939,43.8968716 35.2764585,44.3644013 34.9844455,44.9624595 C34.6924325,45.5605178 34.546426,46.2558792 34.546426,47.0485437 L34.546426,47.0556634 C34.546426,47.8578209 34.6924325,48.5543689 34.9844455,49.1453074 C35.2764585,49.736246 35.6936199,50.193096 36.2359297,50.5158576 C36.7782395,50.8386192 37.4272936,51 38.1830919,51 Z M40.2632327,46.3935896 L35.8772824,46.3935896 L35.8895222,46.2622078 C35.9331469,45.9194055 36.0203963,45.6166846 36.1512705,45.3540453 C36.3475817,44.9600863 36.6138289,44.6622438 36.9500119,44.4605178 C37.2861949,44.2587918 37.6677749,44.1579288 38.0947518,44.1579288 C38.5217288,44.1579288 38.899628,44.2540453 39.2284493,44.4462783 C39.5572706,44.6385113 39.8149292,44.9292341 40.0014248,45.3184466 C40.1257553,45.5779216 40.2086423,45.8848616 40.2500858,46.2392665 L40.2632327,46.3935896 Z M45,50.8647249 L45,40.1423948 L43.7190691,40.1423948 L43.7190691,50.8647249 L45,50.8647249 Z" id="Pixel" fill="#FFFFFF" fill-rule="nonzero"></path>
            </g>
        </g>
    </g>
</svg>