<?xml version="1.0" encoding="UTF-8"?>
<svg width="79px" height="41px" viewBox="0 0 79 41" version="1.1" xmlns="http://www.w3.org/2000/svg" xmlns:xlink="http://www.w3.org/1999/xlink">
    <title>google-analytics</title>
    <g id="Welcome" stroke="none" stroke-width="1" fill="none" fill-rule="evenodd">
        <g id="Desktop-HD" transform="translate(-1095.000000, -2906.000000)" fill-rule="nonzero">
            <g id="google-analytics" transform="translate(1095.000000, 2906.000000)">
                <g id="analytics" transform="translate(37.000000, 0.000000)">
                    <rect id="Rectangle" fill="#F2C042" x="9" y="10" width="6" height="30" rx="1"></rect>
                    <rect id="Rectangle" fill="#57A75C" x="18" y="20" width="6" height="20" rx="1"></rect>
                    <rect id="Rectangle" fill="#F27C42" x="27" y="10" width="6" height="30" rx="1"></rect>
                    <rect id="Rectangle" fill="#458BC4" x="36" y="20" width="6" height="20" rx="1"></rect>
                    <rect id="Rectangle" fill="#D94F3D" x="0" y="0" width="6" height="40" rx="1"></rect>
                </g>
                <g id="google" transform="translate(0.000000, 11.000000)">
                    <path d="M15.2300544,6.1354417 C17.3446419,6.13416519 19.3914313,6.86998841 21.0077857,8.21254295 L25.5352674,3.96699434 C22.011423,0.767431829 17.1621955,-0.609444198 12.4493532,0.251416685 C7.73651091,1.11227757 3.71140631,4.1101638 1.58738127,8.34138185 L6.69152849,12.2154109 C7.91230668,8.59047699 11.3516821,6.14142468 15.2300544,6.1354417 Z" id="Path" fill="#D94F3D"></path>
                    <path d="M6.23047301,14.9973768 C6.23175137,14.0517159 6.387423,13.1124077 6.69152849,12.2154109 L1.58738127,8.34138185 C-0.529127092,12.5339911 -0.529127092,17.4607625 1.58738127,21.6533718 L6.69152849,17.7793428 C6.387423,16.8823459 6.23175137,15.9430377 6.23047301,14.9973768 L6.23047301,14.9973768 Z" id="Path" fill="#F2C042"></path>
                    <path d="M29.8370673,12.2706275 L15.299282,12.2706275 L15.299282,18.4058134 L23.5373604,18.4058134 C23.0473015,20.1405372 21.9244993,21.6362315 20.3840455,22.6063706 L25.448733,26.4510871 C28.6851209,23.5907271 30.5868017,18.9395746 29.8370673,12.2706275 Z" id="Path" fill="#5085ED"></path>
                    <path d="M20.3819687,22.6063706 C18.8167609,23.4885369 17.032369,23.9224996 15.2300544,23.8593119 C11.3516821,23.8533289 7.91230668,21.4042766 6.69152849,17.7793428 L1.58738127,21.6533718 C4.15892818,26.7578727 9.44347915,29.9888455 15.2300544,29.9944978 C18.9630516,30.0943622 22.6017791,28.8318615 25.4466562,26.4497237 L20.3819687,22.6063706 Z" id="Path" fill="#57A75C"></path>
                </g>
            </g>
        </g>
    </g>
</svg>