<?xml version="1.0" encoding="UTF-8"?>
<svg width="73px" height="58px" viewBox="0 0 73 58" version="1.1" xmlns="http://www.w3.org/2000/svg" xmlns:xlink="http://www.w3.org/1999/xlink">
    <title>invoice</title>
    <g id="Welcome" stroke="none" stroke-width="1" fill="none" fill-rule="evenodd">
        <g id="Desktop-HD" transform="translate(-133.000000, -2650.000000)">
            <g id="invoice" transform="translate(133.000000, 2650.000000)">
                <g id="man-47">
                    <rect id="Rectangle" fill="#EAC3A2" x="16" y="22.7257404" width="12" height="15"></rect>
                    <path d="M33,10.7257404 L33,18.7257404 C33,24.7907409 28.0650005,29.7257404 22,29.7257404 C15.9349995,29.7257404 11,24.7907409 11,18.7257404 L11,10.7257404 L33,10.7257404 Z" id="Path" fill="#F1D9C5"></path>
                    <path d="M44,42.7349949 C44,41.0730305 42.7710686,39.1880856 41.2495003,38.522398 L28,32.7257404 C26.3120003,33.9757404 24.2460003,34.7257404 22,34.7257404 C19.7539997,34.7257404 17.6879997,33.9757404 16.0179996,32.7257404 L2.753592,38.522398 C1.232825,39.1869869 0,41.0754108 0,42.7349949 L0,45.7228108 C0,46.2767124 0.4498155,46.7257404 1.001672,46.7257404 L42.9983303,46.7257404 C43.5515404,46.7257404 44,46.2878589 44,45.7228107 L44,42.7349949 Z" id="Path" fill="#E86C60"></path>
                    <path d="M11,10.7246418 C11,7.4115391 13.5352898,3.8202801 16.6539803,2.706461 L24.059681,0.0615712004 C24.5790101,-0.1238994 25.1990796,0.1238995 25.4438592,0.6134702 L27,3.7257404 C30.3137093,3.7257404 33,6.4187717 33,9.7257404 L33,15.7257404 C33,12.9643192 30.7614212,10.7257404 28,10.7257404 L16,10.7257404 C13.2385798,10.7257404 11,12.9643192 11,15.7257404 L11,10.7246418 Z" id="Path" fill="#E2C650"></path>
                    <path d="M22,34.7257404 C19.7540283,34.7257404 17.6879883,33.9757404 16.0180054,32.7257404 L16.0124512,32.7281818 L16.0124512,32.7281818 L13.572876,33.7942829 L15.4830113,38.4623127 C15.7390538,39.0880337 16.5293274,39.2846355 17.048708,38.8518162 L22,34.7257404 L26.9513283,38.8518467 C27.4706993,39.2846546 28.2609539,39.0880756 28.5170136,38.4623737 L30.4296265,33.7887287 L28,32.7257404 C26.3120117,33.9757404 24.2460327,34.7257404 22,34.7257404 Z" id="Path" fill="#FFFFFF"></path>
                </g>
                <g id="bill" transform="translate(35.000000, 14.000000)" fill-rule="nonzero">
                    <path d="M36,0 L2,0 C0.895430512,0 0,0.8954305 0,2 L0,43 C0,43.3688869 0.20297846,43.707846 0.528234968,43.881874 C0.853491477,44.0559019 1.24814135,44.0367322 1.55500001,43.832 L7,40.2 L12.445,43.83 C12.7810369,44.0541995 13.2189631,44.0541995 13.555,43.83 L19,40.2 L24.445,43.83 C24.7810369,44.0541995 25.2189631,44.0541995 25.555,43.83 L31,40.2 L36.445,43.83 C36.7515602,44.034534 37.14577,44.0538804 37.4708844,43.8803466 C37.7959988,43.7068129 37.9993185,43.368528 38,43 L38,2 C38,0.8954305 37.1045695,0 36,0 Z" id="Path" fill="#E6E6E6"></path>
                    <path d="M21,31 L9.00000001,31 C8.44771526,31 8.00000001,30.5522847 8.00000001,30 C8.00000001,29.4477153 8.44771526,29 9.00000001,29 L21,29 C21.5522848,29 22,29.4477153 22,30 C22,30.5522847 21.5522848,31 21,31 Z" id="Path" fill="#444444"></path>
                    <path d="M29,31 L27,31 C26.4477153,31 26,30.5522847 26,30 C26,29.4477153 26.4477153,29 27,29 L29,29 C29.5522848,29 30,29.4477153 30,30 C30,30.5522847 29.5522848,31 29,31 Z" id="Path" fill="#444444"></path>
                    <path d="M21,25 L9.00000001,25 C8.44771526,25 8.00000001,24.5522847 8.00000001,24 C8.00000001,23.4477153 8.44771526,23 9.00000001,23 L21,23 C21.5522848,23 22,23.4477153 22,24 C22,24.5522847 21.5522848,25 21,25 Z" id="Path" fill="#444444"></path>
                    <path d="M29,25 L27,25 C26.4477153,25 26,24.5522847 26,24 C26,23.4477153 26.4477153,23 27,23 L29,23 C29.5522848,23 30,23.4477153 30,24 C30,24.5522847 29.5522848,25 29,25 Z" id="Path" fill="#444444"></path>
                    <circle id="Oval" fill="#B3B3B3" cx="19" cy="12" r="6"></circle>
                </g>
            </g>
        </g>
    </g>
</svg>