<?xml version="1.0" encoding="UTF-8"?>
<svg width="60px" height="52px" viewBox="0 0 60 52" version="1.1" xmlns="http://www.w3.org/2000/svg" xmlns:xlink="http://www.w3.org/1999/xlink">
    <title>link-shorterner</title>
    <g id="Welcome" stroke="none" stroke-width="1" fill="none" fill-rule="evenodd">
        <g id="Desktop-HD" transform="translate(-1122.000000, -2683.000000)" fill-rule="nonzero">
            <g id="link-shorterner" transform="translate(1122.556352, 2683.082150)">
                <g id="anchor" transform="translate(11.443648, 7.917850)">
                    <path d="M37.7080117,28.29395 C37.4936517,28.07862 37.1977617,27.97657 36.8896517,28.00586 L27.8696317,29.00586 C27.4877917,29.04834 27.1635817,29.30615 27.0366217,29.66895 C26.9091817,30.03174 27.0009817,30.43506 27.2729517,30.70704 L30.1060217,33.54011 C27.1760317,36.36157 23.2398717,38 19.0200217,38 C14.7902217,38 10.8458317,36.35364 7.91382173,33.52026 L10.7270517,30.70703 C10.9990217,30.43506 11.0908217,30.03174 10.9633817,29.66894 C10.8364317,29.30615 10.5122117,29.04833 10.1303717,29.00585 L1.11035173,28.00585 C0.80322173,27.97216 0.50586173,28.07812 0.29199173,28.29394 C0.0771517298,28.50927 -0.0278282702,28.81054 0.00635172976,29.11279 L1.02637173,38.11279 C1.06983173,38.49414 1.32764173,38.81738 1.68994173,38.94384 C1.79785173,38.98193 1.90918173,39 2.02002173,39 C2.28076173,39 2.53662173,38.89795 2.72705173,38.70703 L5.08575173,36.34833 C8.75555173,39.92133 13.7074017,42 19.0200217,42 C24.3230017,42 29.2664217,39.92926 32.9341417,36.36823 L35.2729517,38.70704 C35.4633817,38.89795 35.7192417,39 35.9799817,39 C36.0908217,39 36.2021517,38.98193 36.3100617,38.94385 C36.6723617,38.81739 36.9301817,38.49414 36.9736317,38.1128 L37.9936517,29.1128 C38.0278317,28.81055 37.9228517,28.50928 37.7080117,28.29395 Z" id="Path" fill="#444444"></path>
                    <path d="M25.0200217,6 C25.0200217,2.69141 22.3286117,0 19.0200217,0 C15.7114317,0 13.0200217,2.69141 13.0200217,6 C13.0200217,8.60614 14.6929317,10.82306 17.0189817,11.6496 L17.0000017,42 C16.9993917,43.10504 17.8961217,44.00116 19.0011617,44.00116 C20.1052917,44.00116 20.9993917,43.10413 21.0000017,42 L21.0000017,11.65033 C23.3271517,10.82434 25.0200217,8.60693 25.0200217,6 Z M19.0200217,8 C17.9169917,8 17.0200217,7.10303 17.0200217,6 C17.0200217,4.89697 17.9169917,4 19.0200217,4 C20.1230517,4 21.0200217,4.89697 21.0200217,6 C21.0200217,7.10303 20.1230517,8 19.0200217,8 Z" id="Shape" fill="#B3B3B3"></path>
                    <path d="M26.0200217,15 L12.0200217,15 C11.4677417,15 11.0200217,14.55229 11.0200217,14 L11.0200217,12 C11.0200217,11.44771 11.4677417,11 12.0200217,11 L26.0200217,11 C26.5723017,11 27.0200217,11.44771 27.0200217,12 L27.0200217,14 C27.0200217,14.55229 26.5723017,15 26.0200217,15 Z" id="Path" fill="#E6E6E6"></path>
                    <rect id="Rectangle" fill="#898989" transform="translate(19.000002, 16.500000) rotate(90.000000) translate(-19.000002, -16.500000) " x="17.5000017" y="14.5" width="3" height="4"></rect>
                </g>
                <path d="M10.3926279,18.5247777 C10.2607879,18.5247777 10.1270079,18.4984077 9.99809792,18.4427477 L0.604547916,14.3929477 C0.0967379163,14.1741977 -0.136662084,13.5863077 0.0820879163,13.0794677 C0.300837916,12.5696977 0.889707916,12.3382577 1.39556792,12.5570077 L10.7891179,16.6068077 C11.2969279,16.8255577 11.5303279,17.4134477 11.3115779,17.9202877 C11.1484879,18.2991977 10.7803179,18.5247777 10.3926279,18.5247777 Z" id="Path" fill="#E86C60"></path>
                <path d="M58.0606044,15.9998304 C57.9368829,15.9998304 57.8113408,15.9750842 57.6903689,15.9228517 L48.8752586,12.1224319 C48.3987188,11.9171521 48.1796912,11.3654635 48.3849709,10.8898338 C48.5902506,10.4114547 49.142859,10.1942664 49.6175689,10.3995461 L58.4326792,14.1999659 C58.909219,14.4052456 59.1282467,14.9569343 58.9229669,15.4325639 C58.7699197,15.7881413 58.4244211,15.9998304 58.0606044,15.9998304 Z" id="Path-Copy-3" fill="#E86C60" transform="translate(53.653969, 13.161038) scale(-1, 1) translate(-53.653969, -13.161038) "></path>
                <path d="M16.0498479,12.8685277 C15.6631279,12.8685277 15.2949679,12.6429377 15.1318779,12.2640377 L11.0820779,2.87048775 C10.8633279,2.36364775 11.0967279,1.77575775 11.6045379,1.55700775 C12.1084479,1.33923775 12.6992679,1.56970775 12.9180179,2.07946775 L16.9678179,11.4730177 C17.1865679,11.9798577 16.9531679,12.5677477 16.4453579,12.7864977 C16.3164579,12.8421677 16.1826679,12.8685277 16.0498479,12.8685277 Z" id="Path" fill="#E86C60"></path>
                <path d="M47.7388958,10.6918832 C47.3759894,10.6918832 47.0305001,10.4801847 46.8774529,10.1246167 L43.0770331,1.30950645 C42.8717533,0.833876839 43.090781,0.282188162 43.5673208,0.0769084355 C44.0402009,-0.127451637 44.5946391,0.0888263899 44.7999188,0.567196187 L48.6003387,9.38230646 C48.8056184,9.85793606 48.5865908,10.4096247 48.1100509,10.6149045 C47.9890884,10.6671464 47.8635369,10.6918832 47.7388958,10.6918832 Z" id="Path-Copy-4" fill="#E86C60" transform="translate(45.838686, 5.345942) scale(-1, 1) translate(-45.838686, -5.345942) "></path>
            </g>
        </g>
    </g>
</svg>