<?xml version="1.0" encoding="UTF-8"?>
<svg width="44px" height="30px" viewBox="0 0 44 30" version="1.1" xmlns="http://www.w3.org/2000/svg" xmlns:xlink="http://www.w3.org/1999/xlink">
    <title>maps</title>
    <defs>
        <path d="M43.0000208,14 L1.00002084,14 C0.631370842,14 0.292500842,13.79688 0.118180842,13.47168 C-0.0556491584,13.14648 -0.0366091584,12.75195 0.167980842,12.44531 L8.16798084,0.44531 C8.35353084,0.16699 8.66554084,0 9.00002084,0 L35.0000208,0 C35.3344908,0 35.6465008,0.16699 35.8320508,0.44531 L43.8320508,12.44531 C44.0366408,12.75195 44.0556808,13.14648 43.8818508,13.47168 C43.7075308,13.79688 43.3686708,14 43.0000208,14 Z" id="path-1"></path>
    </defs>
    <g id="Welcome" stroke="none" stroke-width="1" fill="none" fill-rule="evenodd">
        <g id="Desktop-HD" transform="translate(-419.000000, -2915.000000)">
            <g id="maps" transform="translate(419.000000, 2915.000000)">
                <g id="world-pin" transform="translate(-0.000000, 16.000000)">
                    <mask id="mask-2" fill="white">
                        <use xlink:href="#path-1"></use>
                    </mask>
                    <use id="Mask" fill="#9BCED3" fill-rule="nonzero" xlink:href="#path-1"></use>
                    <g mask="url(#mask-2)" fill-rule="nonzero">
                        <g transform="translate(1.000000, -12.000000)">
                            <ellipse id="Oval" fill="#CBEAFB" cx="21.5000046" cy="21.5" rx="21.4999954" ry="21.5"></ellipse>
                            <path d="M0,21.5 C-0.00571183153,27.6617676 2.63950085,33.5282311 7.26114406,37.6035 L9.16096183,34.75475 C9.16096183,34.75475 10.5183934,34.3638409 10.8105978,33.8380682 C11.7272795,32.1894091 10.1001207,29.3181818 10.1001207,29.3181818 C10.0665816,28.6302544 9.95678043,27.948176 9.77273443,27.2844773 C9.5284163,26.6736818 7.8181894,25.8371364 7.8181894,25.8371364 C7.8181894,25.8371364 6.16855339,23.1496364 6.16855339,21.5 C6.10919446,20.1537488 7.14408966,19.0103528 8.48957561,18.9356364 C9.59269862,18.7020675 10.5463486,18.0145028 11.1164841,17.0416818 C11.1164841,17.0416818 13.1931882,16.4914773 13.6818245,15.6363636 C14.1704608,14.78125 13.1325973,11.7331364 13.1325973,11.7331364 C13.3246877,10.9272285 13.3176439,10.0866665 13.1120746,9.28409091 C12.7715479,8.54197617 12.2408759,7.90307932 11.5738477,7.43215909 C11.0369941,6.09285592 10.2211253,4.88321105 9.18050728,3.88368182 C3.42453366,7.9019332 -0.00363868787,14.480201 0,21.5 L0,21.5 Z" id="Path" fill="#78D478"></path>
                            <path d="M37.8702966,21.2224545 C38.3589328,22.3834545 36.9526377,25.3465455 35.7935925,25.9250909 C34.6070502,26.4636617 33.572781,27.2883909 32.7835931,28.3252727 C32.3555477,28.9976364 31.793616,31.7691818 30.3892754,32.3193864 C28.9849348,32.8695909 25.6543901,36.0037045 23.8835723,35.5150682 C22.1127545,35.0264318 22.1117772,30.8114545 23.3333679,28.9175 C24.0624132,27.7867955 23.2112088,25.3133182 23.1496406,24.4591818 C23.0880725,23.6050455 20.5227321,22.016 20.5227321,21.1608864 C20.5227321,19.8171364 23.4545497,16.2745227 23.4545497,16.2745227 C24.4620241,15.9111767 25.5194493,15.7051634 26.5896399,15.6637273 C27.3304452,15.933412 28.0403763,16.281334 28.7073894,16.7015909 C29.9991366,16.7981912 31.2724621,17.0650146 32.4943204,17.4951364 L33.8996383,18.7773182 C33.8996383,18.7773182 37.3816603,20.0614545 37.8702966,21.2224545 Z" id="Path" fill="#78D478"></path>
                        </g>
                    </g>
                </g>
                <g id="distance" transform="translate(10.000000, 0.000000)" fill-rule="nonzero">
                    <path d="M10.9565217,20.9072107 C7.21237823,20.9028902 4.17822575,17.8632646 4.17391304,14.1123672 C4.17391304,13.8236989 4.40750361,13.589687 4.69565217,13.589687 C4.98380074,13.589687 5.2173913,13.8236989 5.2173913,14.1123672 C5.22112878,17.2861668 7.78843693,19.858106 10.9565217,19.8618502 C11.2446703,19.8618502 11.4782609,20.0958621 11.4782609,20.3845305 C11.4782609,20.6731988 11.2446703,20.9072107 10.9565217,20.9072107 L10.9565217,20.9072107 Z" id="Path" fill="#EA9860"></path>
                    <path d="M4.69565217,0 C2.10362606,0.00316794221 0.00316223802,2.10742068 0,4.70412242 C0,7.16699184 3.89269565,10.9339485 4.33669565,11.3557515 C4.53796429,11.5469057 4.85334005,11.5469057 5.0546087,11.3557515 C5.4986087,10.9339485 9.39130435,7.16699184 9.39130435,4.70412242 C9.38814211,2.10742068 7.28767829,0.00316794221 4.69565217,0 Z M4.69565217,6.27216322 C3.83120648,6.27216322 3.13043478,5.57012744 3.13043478,4.70412242 C3.13043478,3.83811739 3.83120648,3.13608161 4.69565217,3.13608161 C5.56009787,3.13608161 6.26086957,3.83811739 6.26086957,4.70412242 C6.26086957,5.11999269 6.09596321,5.51883001 5.80242801,5.8128947 C5.5088928,6.1069594 5.11077364,6.27216322 4.69565217,6.27216322 Z" id="Shape" fill="#5A7A84"></path>
                    <path d="M17.2173913,5.74948295 C13.4732478,5.75380344 10.4390953,8.79342907 10.4347826,12.5443264 C10.4347826,16.1785223 16.5813913,22.5688113 16.8427826,22.8411277 C16.9410521,22.94268 17.0762082,23 17.2173913,23 C17.3585744,23 17.4937305,22.94268 17.592,22.8411277 C17.8533913,22.5688113 24,16.1785223 24,12.5443264 C23.9956873,8.79342907 20.9615348,5.75380344 17.2173913,5.74948295 Z M17.2173913,15.1577278 C15.7766485,15.1577278 14.6086957,13.9876681 14.6086957,12.5443264 C14.6086957,11.1009847 15.7766485,9.9309251 17.2173913,9.9309251 C18.6581341,9.9309251 19.826087,11.1009847 19.826087,12.5443264 C19.826087,13.9876681 18.6581341,15.1577278 17.2173913,15.1577278 Z" id="Shape" fill="#335262"></path>
                </g>
            </g>
        </g>
    </g>
</svg>