<?xml version="1.0" encoding="UTF-8"?>
<svg width="45px" height="46px" viewBox="0 0 45 46" version="1.1" xmlns="http://www.w3.org/2000/svg" xmlns:xlink="http://www.w3.org/1999/xlink">
    <title>mobile-app</title>
    <defs>
        <path d="M10.2587075,19.9819756 C10.6261453,18.8349733 12.0366684,15.8912181 15.2335389,15.3184679 C16.111006,15.1612613 16.7158305,15.2321344 17.1133656,15.5562597 C17.7178195,16.0489024 17.939787,17.0846739 17.3265547,18.2143864 C16.8123927,19.1595597 15.6950307,20.163518 13.9481338,20.8477312 C13.6396365,20.9686442 13.3148366,21.0902488 12.9662097,21.1921431 C12.5498638,21.3147851 12.0946423,21.3665391 11.6243721,21.3441777 C11.5453667,22.1966778 11.6369126,23.0743057 11.8588801,23.9060581 C12.6301232,26.7848021 15.4702575,28.9845943 18.4263599,28.0076488 C20.6499492,27.266434 21.5623965,25.1540858 21.2885557,22.7754137 C21.0393328,20.6105802 19.5381645,17.6194221 17.9786627,16.0831361 C17.9121978,16.0373759 17.8958951,15.9466623 17.9422951,15.8805002 C17.9874411,15.8143381 18.0777329,15.7977399 18.1441978,15.8435001 C20.1469217,16.9188076 22.4820168,19.7036972 22.880759,22.2787465 C23.3080568,24.5530543 22.7089736,28.6234872 19.0659273,29.7219855 C15.2470543,30.8886098 11.0613019,28.2476306 10.12954,24.3429126 C9.86744271,23.2430537 9.81978867,22.0931698 10.0116589,20.9891614 C9.67682653,20.8560303 9.34575633,20.6852075 9.02597261,20.475771 C8.56698892,20.1758514 8.14186468,19.7910967 7.75436206,19.3421395 C6.70848119,18.1269003 5.96608134,16.4080682 6.00119484,14.2309424 C5.99868674,14.1064562 6.09650293,14.0030635 6.22190831,14.0000666 C6.34605964,13.9970697 6.4501461,14.0956213 6.45265421,14.2201075 C6.5805677,16.2002454 7.356827,17.7174789 8.3964376,18.7446056 C8.7576051,19.1013508 9.15764826,19.384557 9.55894548,19.6254609 C9.78969137,19.7629721 10.0229454,19.8823866 10.2587075,19.9819756 Z M11.7984644,20.3231414 C12.103208,20.3305285 12.3991731,20.2950936 12.6750727,20.2132587 C13.0688566,20.0925261 13.4325425,19.9571348 13.7611138,19.7976201 C14.6941561,19.3441229 15.3412661,18.7427686 15.7776891,18.1728095 C16.1087686,17.7400884 16.2981361,17.3193712 16.3332505,16.9606363 C16.3495537,16.7978898 16.3545701,16.6500328 16.2454643,16.5795093 C16.1037522,16.4872863 15.8905571,16.5224903 15.6146575,16.6054795 C14.6164026,16.9097347 13.8100233,17.3702728 13.1942656,17.9523514 C12.4844511,18.6228441 12.0342331,19.4422325 11.7984644,20.3231414 Z" id="path-1"></path>
        <filter x="-8.8%" y="-9.4%" width="117.6%" height="118.8%" filterUnits="objectBoundingBox" id="filter-2">
            <feOffset dx="0" dy="0" in="SourceAlpha" result="shadowOffsetOuter1"></feOffset>
            <feGaussianBlur stdDeviation="0.5" in="shadowOffsetOuter1" result="shadowBlurOuter1"></feGaussianBlur>
            <feColorMatrix values="0 0 0 0 1   0 0 0 0 1   0 0 0 0 1  0 0 0 0.0527480332 0" type="matrix" in="shadowBlurOuter1" result="shadowMatrixOuter1"></feColorMatrix>
            <feOffset dx="0" dy="0" in="SourceAlpha" result="shadowOffsetOuter2"></feOffset>
            <feGaussianBlur stdDeviation="0.5" in="shadowOffsetOuter2" result="shadowBlurOuter2"></feGaussianBlur>
            <feColorMatrix values="0 0 0 0 1   0 0 0 0 1   0 0 0 0 1  0 0 0 0.0105714598 0" type="matrix" in="shadowBlurOuter2" result="shadowMatrixOuter2"></feColorMatrix>
            <feMerge>
                <feMergeNode in="shadowMatrixOuter1"></feMergeNode>
                <feMergeNode in="shadowMatrixOuter2"></feMergeNode>
            </feMerge>
        </filter>
    </defs>
    <g id="Welcome" stroke="none" stroke-width="1" fill="none" fill-rule="evenodd">
        <g id="Desktop-HD" transform="translate(-593.000000, -2832.000000)">
            <g id="mobile-app" transform="translate(593.000000, 2832.000000)">
                <g id="property-app" transform="translate(0.000000, 0.000000)" fill-rule="nonzero">
                    <path d="M27.014,0 L5,0 C2.23994685,0.00330611633 0.00330611633,2.23994685 0,5 L0,41 C0,43.7614237 2.23857625,46 5,46 L27.014,46 C29.7754237,46 32.014,43.7614237 32.014,41 L32.014,5 C32.014,3.67391755 31.4872158,2.40214799 30.5495339,1.46446609 C29.611852,0.526784202 28.3400824,0 27.014,0 Z" id="Path" fill="#444444"></path>
                    <path d="M30.028,37 C30.028,37.5522847 29.5802847,38 29.028,38 L3.014,38 C2.46171525,38 2.014,37.5522847 2.014,37 L2.021,7 C2.021,6.44771525 2.46871525,6 3.021,6 L29.028,6 C29.5802847,6 30.028,6.44771525 30.028,7 L30.028,37 Z" id="Path" fill="#58EFBE"></path>
                </g>
                <g id="Shape-Copy" transform="translate(14.500000, 22.000000) rotate(7.636599) translate(-14.500000, -22.000000) ">
                    <use fill="black" fill-opacity="1" filter="url(#filter-2)" xlink:href="#path-1"></use>
                    <use fill="#FFFFFF" fill-rule="evenodd" xlink:href="#path-1"></use>
                </g>
                <g id="apple-2" transform="translate(25.000000, 28.500296)" fill="#F46253" fill-rule="nonzero">
                    <path d="M17.836194,1.15520425 C18.254365,1.49201992 18.6213178,1.92974461 18.9285885,2.44831221 C17.2009005,3.23537271 16,4.97744369 16,7 C16,9.07971889 17.2697407,10.8628739 19.0762907,11.6165337 C18.7709172,12.3973058 18.3833412,13.1758734 17.9081012,13.9367042 C16.0519952,16.9077042 14.1394619,17.4997042 12.5580016,17.4997042 C12.017853,17.4894666 11.4792907,17.4376471 10.9470793,17.3447042 C10.6336564,17.2877416 10.3166107,17.2529887 9.99830301,17.2407042 C9.67999532,17.2529887 9.36294962,17.2877416 9.04952671,17.3447042 C7.29179378,17.6112042 4.63671821,18.0137042 2.08850482,13.9352042 C-1.02348145,8.94970425 -0.370823223,3.19970425 2.16440692,1.15520425 C4.07943698,-0.387295753 6.15326222,-0.0412957535 7.98440048,0.262204247 C8.64910453,0.393135997 9.32323984,0.470384501 10.0003004,0.493204247 C10.677361,0.470384501 11.3514963,0.393135997 12.0162004,0.262204247 C13.847838,-0.0417957535 15.9211639,-0.387795753 17.836194,1.15520425 Z" id="Combined-Shape"></path>
                </g>
                <g id="android" transform="translate(24.000000, 23.000000)" fill="#08B957" fill-rule="nonzero">
                    <path d="M15.3327391,8.9729354 C14.9788749,8.97330861 14.659649,8.75793849 14.523975,8.42729111 C14.388301,8.09664373 14.4629107,7.71586648 14.713,7.46258559 C14.9630892,7.2093047 15.3393829,7.13342406 15.6663464,7.27034071 C15.9933099,7.40725736 16.2065217,7.72999465 16.2065217,8.08800102 C16.2065217,8.5765562 15.8151854,8.97267992 15.3322826,8.9729354 M5.66680435,8.97293503 C5.3129815,8.97312174 4.99389564,8.75763301 4.85836552,8.42697071 C4.7228354,8.09630841 4.79755792,7.71560684 5.04768317,7.46242174 C5.29780843,7.20923665 5.67406642,7.13344077 6.00097383,7.27038462 C6.32788125,7.40732846 6.54104348,7.73003665 6.54104348,8.08800102 C6.54104348,8.5765562 6.14970712,8.97267992 5.66680435,8.97293503 M15.6463696,3.64393323 L17.3934783,0.581304513 C17.47252,0.467003218 17.4811957,0.317409049 17.4159087,0.194540289 C17.3506217,0.0716715282 17.2225025,-0.00352431349 17.0846664,0.000127220535 C16.9468302,0.00377875456 16.8227764,0.0856551257 16.7639348,0.211812284 L16.7639348,0.211812284 L14.994,3.31277582 C12.1346439,2.01587349 8.86398652,2.01587349 6.00463043,3.31277582 L4.2356087,0.21319788 C4.17676706,0.0870407216 4.05271326,0.00516435042 3.91487713,0.0015128164 C3.777041,-0.00213871763 3.64892179,0.0730571241 3.58363476,0.195925884 C3.51834774,0.318794645 3.52702348,0.468388814 3.60606522,0.582690109 L3.60606522,0.582690109 L5.35363043,3.64578069 C2.28674647,5.33458496 0.272258602,8.47814776 0,12 L21,12 C20.7283387,8.47747283 18.7137694,5.33308769 15.6463696,3.64393323" id="Shape"></path>
                </g>
            </g>
        </g>
    </g>
</svg>