<?xml version="1.0" encoding="UTF-8"?>
<svg width="42px" height="54px" viewBox="0 0 42 54" version="1.1" xmlns="http://www.w3.org/2000/svg" xmlns:xlink="http://www.w3.org/1999/xlink">
    <title>mobile-phone-wa</title>
    <g id="Welcome" stroke="none" stroke-width="1" fill="none" fill-rule="evenodd">
        <g id="Desktop-HD" transform="translate(-376.000000, -2694.000000)">
            <g id="mobile-phone-wa" transform="translate(376.000000, 2694.000000)">
                <g id="mobile-chat" transform="translate(0.000000, 12.000000)" fill-rule="nonzero">
                    <path d="M4,0 C1.790861,0 0,1.790861 0,4 L0,38 C0,40.209139 1.790861,42 4,42 L25,42 C27.209139,42 29,40.209139 29,38 L29,4 C29,1.790861 27.209139,0 25,0 L4,0 Z" id="Path" fill="#444444"></path>
                    <path d="M27,34 C27,34.5522847 26.5522847,35 26,35 L3,35 C2.44771525,35 2,34.5522847 2,34 L2,6 C2,5.44771525 2.44771525,5 3,5 L26,5 C26.5522847,5 27,5.44771525 27,6 L27,34 Z" id="Path" fill="#B7E3FC"></path>
                </g>
                <g id="logo-whatsapp" transform="translate(14.000000, 0.000000)">
                    <path d="M0,29 L1.97784496,21.5533921 C0.757862758,19.3742354 0.115896082,16.9019492 0.116898066,14.3692583 C0.11998019,6.44602333 6.37410874,0 14.0584544,0 C17.7879128,0.00152854167 21.2883507,1.49815812 23.9204732,4.21434646 C26.5526661,6.93052875 28.0014462,10.5410227 28,14.3807315 C27.9968875,22.3039665 21.7421964,28.7508356 14.0586419,28.7508356 L14.0586067,28.7508356 L14.0528995,28.7508356 C11.7195497,28.7498448 9.42689439,28.146524 7.39061798,27.0017429 L0,29 Z" id="Path" fill="#3AC34C" fill-rule="nonzero"></path>
                    <path d="M10.5741303,8.36219229 C10.2913893,7.66202354 10.0041951,7.75675688 9.79036242,7.74577917 C9.58741097,7.73536333 9.35494495,7.73316417 9.12271918,7.73316417 C8.89049341,7.73316417 8.51311481,7.82302188 8.19380438,8.18245875 C7.87450566,8.54191375 6.97462494,9.41061479 6.97462494,11.1779171 C6.97462494,12.9452194 8.22283846,14.6526004 8.39701951,14.8922552 C8.57118298,15.13191 10.8533672,18.7586862 14.347799,20.3139985 C15.1788945,20.6839298 15.827793,20.9048131 16.333654,21.070379 C17.168189,21.3435952 17.9275811,21.3050615 18.5277985,21.212624 C19.1970531,21.1095592 20.5887729,20.3439712 20.8790727,19.5052429 C21.1693373,18.6665146 21.1693373,17.9475985 21.0822468,17.7978196 C20.9951973,17.6480829 20.7629539,17.5582071 20.414627,17.3784554 C20.0662649,17.198746 18.3536233,16.330051 18.0342835,16.2102448 C17.7149907,16.0904325 17.4827825,16.0305294 17.2505391,16.3899904 C17.0183368,16.7494152 16.3507463,17.5582071 16.1475312,17.7978196 C15.9443571,18.0374744 15.7411419,18.067441 15.392815,17.8876954 C15.0444471,17.707986 13.9220205,17.328805 12.5914803,16.1055367 C11.555951,15.1535029 10.8567775,13.977571 10.6535799,13.61811 C10.4503882,13.258655 10.631964,13.0643006 10.806356,12.8853162 C10.9630346,12.7244508 11.154683,12.4659521 11.328864,12.25627 C11.5030275,12.0465879 11.5610898,11.896809 11.6771909,11.6571965 C11.7933156,11.4175417 11.7352532,11.2078656 11.6481569,11.0281321 C11.5610898,10.8484167 10.86443,9.08109021 10.5741303,8.36219229 Z" id="Path" fill="#FFFFFF"></path>
                </g>
            </g>
        </g>
    </g>
</svg>