<?xml version="1.0" encoding="UTF-8"?>
<svg width="69px" height="62px" viewBox="0 0 69 62" version="1.1" xmlns="http://www.w3.org/2000/svg" xmlns:xlink="http://www.w3.org/1999/xlink">
    <title>mobile-friendly</title>
    <g id="Welcome" stroke="none" stroke-width="1" fill="none" fill-rule="evenodd">
        <g id="Desktop-HD" transform="translate(-566.000000, -2888.000000)" fill-rule="nonzero">
            <g id="mobile-friendly" transform="translate(566.000000, 2888.000000)">
                <g id="globe">
                    <circle id="Oval" fill="#E6E6E6" cx="21" cy="21" r="20"></circle>
                    <path d="M21,0 C9.42088,0 0,9.4204 0,21 C0,32.5796 9.42088,42 21,42 C32.57908,42 42,32.5796 42,21 C42,9.4204 32.57908,0 21,0 Z M2.05068,22 L10.02558,22 C10.09338,24.8687 10.44648,27.5658 11.03808,30 L4.27288,30 C2.975,27.5974 2.20168,24.8801 2.05068,22 Z M22,10 L22,2.1318 C24.55058,2.7593 26.81068,5.7484 28.27378,10 L22,10 Z M28.88658,12 C29.52008,14.4156 29.90048,17.1379 29.97518,20 L22,20 L22,12 L28.88658,12 Z M20,2.1318 L20,10 L13.72618,10 C15.18928,5.7484 17.44938,2.7593 20,2.1318 Z M20,12 L20,20 L12.02478,20 C12.09948,17.1379 12.47988,14.4156 13.11338,12 L20,12 Z M10.02558,20 L2.05068,20 C2.20168,17.1199 2.975,14.4026 4.27288,12 L11.03808,12 C10.44648,14.4342 10.09338,17.1313 10.02558,20 Z M12.02478,22 L20,22 L20,30 L13.11338,30 C12.47988,27.5844 12.09948,24.8621 12.02478,22 Z M20,32 L20,39.8682 C17.44938,39.2407 15.18928,36.2516 13.72618,32 L20,32 Z M22,39.8682 L22,32 L28.27378,32 C26.81068,36.2516 24.55058,39.2407 22,39.8682 Z M22,30 L22,22 L29.97518,22 C29.90048,24.8621 29.52008,27.5844 28.88658,30 L22,30 Z M31.97438,22 L39.94928,22 C39.79828,24.8801 39.025,27.5974 37.72708,30 L30.96188,30 C31.55348,27.5658 31.90658,24.8687 31.97438,22 Z M31.97438,20 C31.90658,17.1313 31.55348,14.4342 30.96188,12 L37.72708,12 C39.025,14.4026 39.79828,17.1199 39.94928,20 L31.97438,20 Z M36.46308,10 L30.404,10 C29.46448,7.0355 28.15418,4.5772 26.58118,2.8395 C30.61318,4.0812 34.06508,6.6392 36.46308,10 Z M15.41878,2.8395 C13.84578,4.5772 12.53548,7.0355 11.596,10 L5.53688,10 C7.93488,6.6392 11.38678,4.0812 15.41878,2.8395 Z M5.53688,32 L11.596,32 C12.53548,34.9645 13.84578,37.4228 15.41878,39.1605 C11.38678,37.9188 7.93488,35.3608 5.53688,32 Z M26.58118,39.1605 C28.15418,37.4228 29.46448,34.9645 30.404,32 L36.46308,32 C34.06508,35.3608 30.61318,37.9188 26.58118,39.1605 Z" id="Shape" fill="#444444"></path>
                    <circle id="Oval" fill="#EFD358" cx="13" cy="13" r="3"></circle>
                    <path d="M13,17 C10.79388,17 9,15.2056 9,13 C9,10.7944 10.79388,9 13,9 C15.20608,9 17,10.7944 17,13 C17,15.2056 15.20608,17 13,17 Z M13,11 C11.89748,11 11,11.897 11,13 C11,14.103 11.89748,15 13,15 C14.10248,15 15,14.103 15,13 C15,11.897 14.10248,11 13,11 Z" id="Shape" fill="#FFFFFF"></path>
                    <circle id="Oval" fill="#EFD358" cx="30" cy="20" r="3"></circle>
                    <path d="M30,24 C27.79388,24 26,22.2056 26,20 C26,17.7944 27.79388,16 30,16 C32.20608,16 34,17.7944 34,20 C34,22.2056 32.20608,24 30,24 Z M30,18 C28.89748,18 28,18.897 28,20 C28,21.103 28.89748,22 30,22 C31.10248,22 32,21.103 32,20 C32,18.897 31.10248,18 30,18 Z" id="Shape" fill="#FFFFFF"></path>
                    <circle id="Oval" fill="#EFD358" cx="21" cy="31" r="3"></circle>
                    <path d="M21,35 C18.79388,35 17,33.2056 17,31 C17,28.7944 18.79388,27 21,27 C23.20608,27 25,28.7944 25,31 C25,33.2056 23.20608,35 21,35 Z M21,29 C19.89748,29 19,29.897 19,31 C19,32.103 19.89748,33 21,33 C22.10248,33 23,32.103 23,31 C23,29.897 22.10248,29 21,29 Z" id="Shape" fill="#FFFFFF"></path>
                </g>
                <g id="p-heart" transform="translate(27.000000, 16.000000)">
                    <path d="M27,0 L5,0 C2.23994685,0.00330611633 0.00330611633,2.23994685 0,5 L0,41 C0.00330611633,43.7600532 2.23994685,45.9966939 5,46 C5,46 20.458,45.977 27.949,45.959 C30.1491595,45.9502026 31.9291673,44.1661738 31.933,41.966 L32,5 C31.9972439,2.23971869 29.7602813,0.00275614915 27,0 Z" id="Path" fill="#444444"></path>
                    <path d="M29,39 L3,39 C2.44771525,39 2,38.5522847 2,38 L2,6 C2,5.44771525 2.44771525,5 3,5 L29,5 C29.5522847,5 30,5.44771525 30,6 L30,38 C30,38.5522847 29.5522847,39 29,39 Z" id="Path" fill="#B7E3FC"></path>
                    <path d="M39.329,29.737 C37.0572129,27.4544967 33.3748199,27.4153317 31.055,29.649 C28.7122474,27.3948979 24.9898259,27.4526977 22.7181868,29.7784495 C20.4465477,32.1042014 20.4763801,35.8269522 22.785,38.116 L30.346,45.706 C30.7364999,46.0963819 31.3695001,46.0963819 31.76,45.706 L31.76,45.706 L39.323,38.116 C41.6273923,35.7992797 41.6300721,32.0570181 39.329,29.737 Z" id="Path" fill="#ED7064"></path>
                </g>
            </g>
        </g>
    </g>
</svg>