<?xml version="1.0" encoding="UTF-8"?>
<svg width="1013px" height="306px" viewBox="0 0 1013 306" version="1.1" xmlns="http://www.w3.org/2000/svg" xmlns:xlink="http://www.w3.org/1999/xlink">
    <!-- Generator: Sketch 60.1 (88133) - https://sketch.com -->
    <title>orderla-logo</title>
    <desc>Created with Sketch.</desc>
    <defs>
        <path d="M15.4400668,167.62788 C19.0333348,150.00552 33.6630688,126.50904 52.9127188,93.3074922 C58.5592828,93.0520957 64.9758328,92.0305096 71.6490448,89.2211478 C58.8159448,104.800336 45.2128588,124.465868 45.2128588,140.811245 C45.2128588,154.602657 53.6827048,165.584708 69.3390868,165.584708 C83.9688208,165.584708 99.1118788,154.602657 105.271767,140.045056 C108.095049,133.14935 107.838387,127.019833 106.041753,123.444282 C103.731795,118.847144 100.138527,119.102541 98.0852308,123.699678 C90.1287088,141.322038 79.8622288,155.624243 71.1357208,155.624243 C67.5424528,155.624243 65.4891568,151.537899 65.4891568,144.89759 C65.4891568,129.829195 80.1188908,109.65287 93.9786388,93.8182852 C96.8019208,90.4981304 98.0852308,86.9225791 98.0852308,83.8578209 C98.0852308,77.7283043 94.2353008,71.0879948 90.6420328,67.5124435 C87.3054268,64.1922887 84.7388068,64.7030817 80.3755528,67.76784 C72.6756928,73.3865635 65.7458188,76.9621148 59.5859308,78.4944939 C62.4092128,70.3218052 64.2058468,62.9153061 64.2058468,58.0627722 C64.2058468,52.1886522 61.8958888,49.1238939 56.5059868,49.1238939 C48.5494648,49.1238939 32.1230968,67.257047 32.1230968,80.2822696 C32.1230968,83.6024243 33.9197308,86.9225791 36.9996748,89.7319409 C22.8832648,107.098904 9.79350276,128.041419 5.43024876,136.214108 C1.83698076,142.854417 0.0403467568,148.983934 0.0403467568,154.602657 C0.0403467568,160.221381 2.09364276,165.584708 6.45689676,169.671052 C11.0768128,174.523586 14.4134188,172.225017 15.4400668,167.62788 Z M169.950591,165.073915 C184.836987,165.073915 200.750031,151.793296 207.679905,138.001883 C211.016511,130.850781 209.989863,123.699678 208.706553,121.40111 C206.396595,116.803972 203.059989,116.548576 200.493369,121.40111 C191.766861,138.25728 179.190423,155.11345 170.207253,155.11345 C167.897295,155.11345 166.870647,153.325675 166.870647,149.494727 C166.870647,145.408383 168.410619,139.789659 171.490563,133.14935 C183.553677,107.865094 205.369947,72.1095809 220.256343,44.0159635 C226.929555,32.012327 230.266161,22.0518626 230.266161,15.1561565 C230.266161,11.5806052 229.239513,8.26045043 227.956203,5.19569217 C225.389583,-0.933824348 221.796315,-1.44461739 217.176399,4.94029565 C208.706553,16.9439322 192.023523,45.8037391 179.190423,69.8110122 C177.137127,63.1707026 171.490563,59.5951513 162.764055,59.5951513 C149.417631,59.5951513 128.114685,71.5987878 108.095049,100.458595 C99.1118788,113.483817 94.4919628,127.530626 94.4919628,138.25728 C94.4919628,153.325675 102.705147,164.307725 117.591543,164.307725 C128.884671,164.307725 138.894489,157.667416 146.851011,149.494727 C148.904307,160.732174 157.374153,165.073915 169.950591,165.073915 Z M121.184811,153.070278 C118.361529,153.070278 117.334881,149.750123 117.334881,145.152986 C117.334881,136.724901 121.441473,123.955075 129.141333,111.951438 C142.744419,90.4981304 159.684111,74.9189426 166.870647,75.1743391 C171.747225,75.4297357 167.127309,90.2427339 153.267561,116.548576 C141.717771,138.768073 129.397995,153.070278 121.184811,153.070278 Z M332.160975,164.563122 C347.304033,164.563122 366.297021,153.581071 372.713571,137.746487 C376.050177,130.595384 375.280191,123.444282 373.996881,120.63492 C371.430261,115.016197 367.580331,116.037783 365.270373,120.890317 C357.570513,138.768073 342.940779,154.347261 333.700947,154.347261 C330.107679,154.347261 328.054383,150.00552 328.054383,143.36521 C328.054383,140.300452 328.824369,135.703315 329.851017,132.38316 C334.470933,119.357937 347.047371,101.990974 358.083837,89.2211478 C361.163781,85.900993 362.447091,82.5808383 362.447091,79.51608 C362.447091,73.131167 358.083837,66.2354609 354.747231,61.89372 C351.667287,57.8073757 348.074019,59.5951513 343.967427,62.1491165 C335.497581,67.5124435 328.824369,71.0879948 321.637833,72.8757704 C324.461115,64.4476852 326.514411,56.7857896 326.514411,51.4224626 C326.514411,45.8037391 324.461115,42.4835843 319.071213,42.4835843 C310.344705,42.7389809 293.148351,61.382927 293.148351,74.9189426 C293.148351,79.51608 295.714971,83.3470278 300.334887,86.1563896 C286.731801,117.314765 260.038953,154.091864 234.372753,154.091864 C227.186217,154.091864 222.566301,146.429969 222.566301,134.681729 C222.566301,130.084591 223.336287,124.721264 224.876259,119.613334 C230.779485,123.699678 236.939373,125.232057 243.099261,125.232057 C254.392389,125.232057 264.145545,118.847144 271.588743,109.65287 C278.518617,100.713991 282.368547,90.2427339 282.368547,82.8362348 C282.368547,79.7714765 281.341899,76.7067183 280.058589,74.4081496 C275.951997,69.3002191 271.075419,65.4692713 264.145545,61.1275304 C261.578925,59.5951513 258.755643,59.0843583 255.419037,59.0843583 C240.789303,59.0843583 219.743019,73.3865635 206.396595,99.4370087 C201.263355,109.65287 198.696735,119.86873 198.696735,128.807609 C198.696735,148.983934 211.786497,164.307725 235.399401,164.052329 C266.712165,163.541536 294.174999,132.38316 315.221283,88.7103548 C320.867847,88.4549583 327.284397,87.4333722 334.214271,84.3686139 C323.947791,96.3722504 313.937973,110.419059 309.574719,124.210471 C307.778085,129.573798 307.008099,134.170936 307.008099,138.25728 C307.008099,153.325675 315.991269,164.563122 332.160975,164.563122 Z M234.116091,111.696042 C232.319457,111.696042 230.522823,111.185249 228.469527,110.163663 C228.982851,108.88668 229.496175,107.865094 230.779485,105.566525 C241.302627,84.879407 258.755643,70.0664087 263.375559,73.64196 C265.942179,75.6851322 260.038953,88.1995617 252.852417,97.3938365 C247.719177,104.289543 240.789303,111.696042 234.116091,111.696042 Z M388.883277,164.052329 C410.442885,164.052329 429.435873,143.109814 433.285803,135.447918 C436.622409,128.552212 436.879071,122.678092 435.852423,118.847144 C434.055789,112.206835 428.409225,112.206835 425.072619,118.591748 C415.319463,136.980297 400.433067,154.091864 388.626615,154.091864 C385.290009,154.091864 383.750037,149.750123 383.750037,143.620607 C383.750037,134.681729 387.086643,123.188885 392.219883,110.163663 C414.806139,95.0952678 442.782297,64.9584783 450.738819,34.5662922 C452.022129,30.2245513 452.278791,27.4151896 452.278791,23.8396383 C452.278791,17.1993287 449.455509,10.0482261 443.808945,5.19569217 C438.932367,0.598554783 434.312451,2.13093391 429.435873,6.98346783 C404.282997,33.2893096 375.280191,80.5376661 365.270373,122.933489 C363.987063,128.041419 363.473739,133.14935 363.473739,137.49109 C363.473739,155.11345 373.226895,164.052329 388.883277,164.052329 Z M401.716377,89.4765443 C403.513011,85.1348035 414.806139,65.9800643 421.479351,54.7426174 C430.205859,39.6742226 436.879071,29.7137583 437.905719,30.2245513 C439.445691,31.2461374 436.109085,42.4835843 427.382577,57.0411861 C421.479351,67.0016504 412.752843,78.7498904 401.716377,89.4765443 Z M496.681317,165.329311 C512.337699,165.329311 528.764067,151.793296 535.437279,137.746487 C539.030547,130.339988 537.490575,123.444282 536.463927,121.145713 C533.897307,115.782386 531.587349,116.037783 528.764067,121.145713 C520.294221,137.746487 507.461121,155.11345 498.221289,155.11345 C495.654669,155.11345 494.628021,152.814882 494.628021,148.983934 C494.628021,131.872367 516.187629,104.034146 522.860841,89.9873374 C529.534053,76.7067183 527.224095,65.4692713 522.860841,60.3613409 C519.780897,56.7857896 515.417643,57.0411861 512.337699,62.1491165 L507.461121,70.0664087 C505.151163,63.4260991 499.504599,58.8289617 490.264767,58.8289617 C477.175005,58.8289617 456.128721,70.8325983 435.595761,100.203198 C426.355929,112.973024 421.736013,127.27523 421.736013,138.25728 C421.736013,153.325675 429.949197,164.307725 445.092255,164.307725 C455.358735,164.307725 466.908525,156.390433 474.351723,149.23933 C476.405019,158.689002 483.848217,165.329311 496.681317,165.329311 Z M448.428861,153.070278 C445.862241,153.070278 444.835593,150.00552 444.835593,145.408383 C444.835593,137.235694 449.198847,123.699678 456.898707,111.696042 C469.988469,90.753527 487.698147,74.6635461 492.831387,74.6635461 C495.398007,74.6635461 495.911331,76.4513217 495.911331,79.51608 C495.911331,86.1563896 491.291415,98.6708191 481.281597,116.037783 C468.705159,137.49109 456.898707,153.070278 448.428861,153.070278 Z" id="path-1"></path>
        <filter x="0.0%" y="-0.0%" width="100.0%" height="100.0%" filterUnits="objectBoundingBox" id="filter-2">
            <feOffset dx="0" dy="0" in="SourceAlpha" result="shadowOffsetOuter1"></feOffset>
            <feColorMatrix values="0 0 0 0 0.294185915   0 0 0 0 0.294185915   0 0 0 0 0.294185915  0 0 0 0.5 0" type="matrix" in="shadowOffsetOuter1"></feColorMatrix>
        </filter>
        <path d="M559.207112,149.494749 C561.883139,142.58897 560.099121,135.683191 554.747069,133.778148 C549.172014,131.634975 542.258946,135.44506 539.136916,142.8271 C536.460889,148.780358 538.467909,156.638659 543.819962,158.781832 C549.172014,160.925004 556.531086,156.638659 559.207112,149.494749 Z M621.20172,156.638659 C630.567812,134.492539 641.271917,111.870159 658.666088,93.2959938 C671.823217,79.2463049 676.506263,76.8650018 678.29028,76.8650018 C680.074298,76.8650018 674.722245,84.0089113 669.816197,91.8672119 C664.687147,100.439903 657.328075,113.298941 653.76004,121.395371 C651.307016,127.348629 650.415007,132.587496 650.415007,136.873842 C650.415007,149.732879 658.666088,158.543701 673.830236,158.543701 C687.656372,158.543701 703.489527,146.637185 709.733588,132.825627 C712.409615,127.348629 712.186612,118.299677 709.733588,115.680244 C707.726569,113.537071 705.496547,113.775201 703.489527,117.347156 C695.238446,131.873105 684.311339,148.542228 677.398271,148.542228 C673.830236,148.542228 671.600214,144.732143 671.600214,139.255145 C671.600214,130.920584 677.398271,120.44285 683.642333,110.203246 C692.785422,95.2010363 697.468468,84.2470417 697.468468,76.1506108 C697.468468,68.2923103 693.900433,61.8627916 687.43337,61.6246613 C680.2973,61.386531 668.478184,69.4829619 658.443085,79.0081746 C658.443085,69.0067012 653.76004,60.4340097 646.62397,60.4340097 C639.4879,60.4340097 626.999777,69.4829619 617.410683,79.4844353 C617.856688,77.1031321 618.07969,74.9599592 618.07969,73.0549166 C618.07969,69.2448315 616.964679,65.1966161 614.957659,61.6246613 C612.727637,57.3383156 609.382604,57.1001853 606.483576,61.6246613 C592.880443,83.770781 576.824285,116.870895 572.141239,131.158715 C570.357222,136.635712 569.688215,140.683927 569.688215,144.017752 C569.688215,149.494749 571.918237,153.781095 575.040268,156.638659 C578.831305,160.210613 581.284329,158.781832 582.845344,154.971746 C591.54243,133.063757 601.80053,111.393898 614.288653,97.1060789 C627.668784,81.3894778 636.365869,76.1506108 638.149887,76.1506108 C640.156906,76.1506108 633.912845,85.1995629 627.891786,95.9154273 C621.870727,105.916901 614.511655,118.775938 611.389624,127.348629 C609.159602,133.301887 607.375585,140.922058 607.375585,144.970273 C607.375585,151.161661 608.9366,154.495486 612.281633,158.067441 C615.849668,161.877526 618.971698,161.163135 621.20172,156.638659 Z M700.367497,240.222401 C719.768687,232.3641 734.932835,194.263249 747.197956,162.830047 C765.484135,154.733616 780.202279,145.922794 789.122367,131.396845 C792.913404,125.205457 793.359408,119.014068 792.244397,115.203983 C791.352389,112.108289 788.007356,112.58455 785.108327,116.870895 C777.972257,127.58676 766.376144,139.731406 752.77301,148.542228 C761.9161,125.919848 773.512214,102.821207 779.979277,89.4859087 C782.878306,83.5326507 783.993317,78.2937837 783.993317,73.5311773 C783.993317,68.5304406 783.101308,64.9584858 779.756275,61.386531 C777.303251,58.7670975 774.404222,59.2433581 771.282192,63.5297039 C765.930139,72.1023954 759.90908,86.6283448 744.967934,113.537071 C734.040827,133.301887 724.005728,147.351576 718.207671,147.351576 C712.409615,147.351576 714.416634,137.826363 717.538665,129.253672 C721.775706,118.061547 726.458752,108.298204 734.040827,95.4391667 C739.169877,86.6283448 741.845903,79.7225656 741.845903,73.7693076 C741.845903,69.9592225 739.838884,65.6728768 737.608862,62.3390523 C735.155838,58.5289672 731.810805,58.7670975 728.911776,62.8153129 C715.085641,83.0563901 704.158534,107.107552 699.029483,122.109762 C697.022464,128.06302 696.130455,133.778148 696.130455,138.778885 C696.130455,148.780358 701.036503,157.82931 712.186612,157.82931 C718.876678,157.82931 724.674735,155.686137 730.472792,151.161661 L727.127759,159.496223 C705.496547,168.783305 687.43337,183.309254 680.520302,203.788462 C679.182289,208.074808 678.513282,212.123023 678.513282,214.980587 C678.513282,222.600757 681.858315,229.744667 685.203348,234.745403 C690.5554,242.365574 695.238446,242.365574 700.367497,240.222401 Z M693.454429,225.458321 C691.224407,223.315148 692.785422,213.551805 698.360477,202.35968 C703.043523,193.072598 710.625597,182.832994 721.329702,174.974693 C715.97765,187.83373 710.625597,199.502116 705.942551,208.312938 C699.69849,219.981324 695.015444,226.887103 693.454429,225.458321 Z" id="path-3"></path>
        <filter x="-0.0%" y="0.0%" width="100.0%" height="100.0%" filterUnits="objectBoundingBox" id="filter-4">
            <feOffset dx="0" dy="0" in="SourceAlpha" result="shadowOffsetOuter1"></feOffset>
            <feColorMatrix values="0 0 0 0 0.294185915   0 0 0 0 0.294185915   0 0 0 0 0.294185915  0 0 0 0.5 0" type="matrix" in="shadowOffsetOuter1"></feColorMatrix>
        </filter>
    </defs>
    <g id="Web-Admin" stroke="none" stroke-width="1" fill="none" fill-rule="evenodd">
        <g id="Desktop-HD" transform="translate(-213.000000, -165.000000)">
            <g id="orderla-logo" transform="translate(213.000000, 165.000000)">
                <g id="Group" transform="translate(219.705243, 63.662609)" fill-rule="nonzero">
                    <g id="rdela">
                        <use fill="black" fill-opacity="1" filter="url(#filter-2)" xlink:href="#path-1"></use>
                        <use fill="#32B695" xlink:href="#path-1"></use>
                    </g>
                    <g id=".my">
                        <use fill="black" fill-opacity="1" filter="url(#filter-4)" xlink:href="#path-3"></use>
                        <use fill="#32B695" xlink:href="#path-3"></use>
                    </g>
                </g>
                <path d="M54.1406717,88.7947698 C60.6314939,73.1104248 83.8867025,33.3919058 129.648117,29.0084384 C142.208568,27.8052778 150.662196,29.4925371 155.902497,34.4984423 C163.870617,42.1072594 165.823216,56.9043335 155.883816,72.0646366 C147.552479,84.7472332 130.642793,97.5649366 105.2142,105.172741 C100.723485,106.517421 96.001945,107.853156 90.96664,108.884875 C84.9521665,110.130413 78.4698623,110.336138 71.8596124,109.484003 C69.7740508,121.363376 70.0664277,133.790736 72.2513486,145.723219 C79.8558259,187.025676 117.426382,221.162683 160.250722,210.828462 C180.878714,205.608139 204.295136,192.295632 206.595598,140.639105 C207.9604,109.992697 187.768076,66.2417615 167.512243,42.8864293 C166.626504,42.1678588 166.499763,40.8755113 167.229827,39.9996409 C167.942196,39.1223354 169.235154,38.9926112 170.120893,39.7111817 C197.155707,57.1012159 226.93368,98.8755081 229.627834,135.48757 C233.067382,167.909659 219.978965,224.376221 167.323137,235.631024 C112.108742,247.641157 56.053329,205.769646 47.352162,149.878 C44.9062926,134.135164 45.5432732,117.93534 49.5078043,102.653749 C44.9347758,100.40131 40.4577534,97.6239547 36.1839585,94.317347 C30.0490276,89.5809886 24.4884717,83.6922258 19.5318819,76.9450599 C6.15787631,58.6852546 -2.36042928,33.7018967 0.614181126,3.17349088 C0.720546018,1.42273441 2.21851012,0.0829557028 3.99152215,0.183452324 C5.74668732,0.284383459 7.1031689,1.78724019 6.99680401,3.53799666 C6.54688901,31.4870975 15.7725309,53.6785985 29.2722684,69.2899779 C33.9622623,74.7122761 39.2845491,79.1465148 44.6727017,82.988231 C47.7720379,85.1830566 50.9273716,87.1266616 54.1406717,88.7947698 Z M75.3036782,95.5614331 C79.5833846,96.0126555 83.7882024,95.8541536 87.7633771,95.0229367 C93.4415012,93.7815012 98.7127589,92.3004277 103.517314,90.4414422 C117.161379,85.1551491 126.949979,77.4718702 133.738312,69.9878352 C138.888465,64.3055535 142.030931,58.6296639 142.932481,53.6457815 C143.346731,51.3851792 143.585252,49.3202198 142.130107,48.2080535 C140.2408,46.754783 137.200913,47.0045078 133.224427,47.8518892 C118.832253,50.9736811 106.962486,56.5031242 97.6369409,63.9522332 C86.8874893,72.5322136 79.6217463,83.4936739 75.3036782,95.5614331 Z" id="Shape" fill="#32B695"></path>
            </g>
        </g>
    </g>
</svg>