<?xml version="1.0" encoding="UTF-8"?>
<svg width="73px" height="49px" viewBox="0 0 73 49" version="1.1" xmlns="http://www.w3.org/2000/svg" xmlns:xlink="http://www.w3.org/1999/xlink">
    <title>order-edit</title>
    <g id="Welcome" stroke="none" stroke-width="1" fill="none" fill-rule="evenodd">
        <g id="Desktop-HD" transform="translate(-1048.000000, -2756.000000)" fill-rule="nonzero">
            <g id="order-edit" transform="translate(1048.000000, 2756.000000)">
                <g id="todo" transform="translate(0.000000, 3.000000)">
                    <path d="M36,2 L2,2 C0.895,2 0,2.895 0,4 L0,44 C0,45.105 0.895,46 2,46 L36,46 C37.105,46 38,45.105 38,44 L38,4 C38,2.895 37.105,2 36,2 Z" id="Path" fill="#A67C52"></path>
                    <path d="M32,41 L6,41 C5.448,41 5,40.552 5,40 L5,8 C5,7.448 5.448,7 6,7 L32,7 C32.552,7 33,7.448 33,8 L33,40 C33,40.552 32.552,41 32,41 Z" id="Path" fill="#FFFFFF"></path>
                    <g id="bill" transform="translate(3.000000, 6.000000)">
                        <path d="M31.2631579,0 L1.73684211,0 C0.777610707,0 0,0.773323683 0,1.72726679 L0,37.136236 C0,37.454819 0.176270768,37.7475555 0.458730367,37.8978518 C0.741189967,38.0481481 1.08391223,38.0315926 1.35039475,37.854779 L6.07894738,34.7180625 L10.8075,37.8530517 C11.0993215,38.0466779 11.4796259,38.0466779 11.7714474,37.8530517 L16.5,34.7180625 L21.2285526,37.8530517 C21.5203741,38.0466779 21.9006785,38.0466779 22.1925,37.8530517 L26.9210526,34.7180625 L31.6496053,37.8530517 C31.9158286,38.0296941 32.2581687,38.0464023 32.5405049,37.8965327 C32.822841,37.7466632 32.9994082,37.4545091 33,37.136236 L33,1.72726679 C33,0.773323683 32.2223893,0 31.2631579,0 Z" id="Path" fill="#E6E6E6"></path>
                        <path d="M18.1428571,16 L7.85714286,16 C7.38375593,16 7,15.5522847 7,15 C7,14.4477153 7.38375593,14 7.85714286,14 L18.1428571,14 C18.6162441,14 19,14.4477153 19,15 C19,15.5522847 18.6162441,16 18.1428571,16 Z" id="Path" fill="#444444"></path>
                        <path d="M25.25,16 L23.75,16 C23.3357864,16 23,15.5522847 23,15 C23,14.4477153 23.3357864,14 23.75,14 L25.25,14 C25.6642136,14 26,14.4477153 26,15 C26,15.5522847 25.6642136,16 25.25,16 Z" id="Path" fill="#444444"></path>
                        <path d="M18.1428571,11 L7.85714286,11 C7.38375593,11 7,10.5522847 7,10 C7,9.44771525 7.38375593,9 7.85714286,9 L18.1428571,9 C18.6162441,9 19,9.44771525 19,10 C19,10.5522847 18.6162441,11 18.1428571,11 Z" id="Path" fill="#444444"></path>
                        <path d="M25.25,11 L23.75,11 C23.3357864,11 23,10.5522847 23,10 C23,9.44771525 23.3357864,9 23.75,9 L25.25,9 C25.6642136,9 26,9.44771525 26,10 C26,10.5522847 25.6642136,11 25.25,11 Z" id="Path" fill="#444444"></path>
                    </g>
                    <path d="M23,4 C23,1.791 21.209,0 19,0 C16.791,0 15,1.791 15,4 L12,4 C11.448,4 11,4.448 11,5 L11,9 C11,9.552 11.448,10 12,10 L26,10 C26.552,10 27,9.552 27,9 L27,5 C27,4.448 26.552,4 26,4 L23,4 Z" id="Path" fill="#EFD358"></path>
                    <circle id="Oval" fill="#B29930" cx="19" cy="4" r="1"></circle>
                </g>
                <g id="pen-01" transform="translate(31.000000, -0.000000)">
                    <polygon id="Path" fill="#223E49" points="5.458 40.76875 4.275 37.58575 1.092 36.40275 -1.33226763e-15 41.86075"></polygon>
                    <polygon id="Path" fill="#EAD8C5" points="11.768 39.50675 9.275 32.29375 2.354 30.09275 1.092 36.40275 5.458 40.76875"></polygon>
                    <path d="M31.861,0.58575 L26.568,5.87875 L30.275,11.58575 L35.982,15.29275 L41.275,9.99975 C42.056,9.21875 42.056,7.95275 41.275,7.17175 L34.689,0.58575 C33.908,-0.19525 32.642,-0.19525 31.861,0.58575 Z" id="Path" fill="#335262"></path>
                    <rect id="Rectangle" fill="#E86C60" transform="translate(17.313827, 20.839223) rotate(-45.000000) translate(-17.313827, -20.839223) " x="0.191990951" y="16.8037617" width="34.2436716" height="8.0709226"></rect>
                    <rect id="Rectangle" fill="#DD5E58" transform="translate(21.521373, 25.045916) rotate(-45.000000) translate(-21.521373, -25.045916) " x="4.39953745" y="21.7174478" width="34.2436716" height="6.65693616"></rect>
                    <rect id="Rectangle" fill="#E6E6E6" transform="translate(31.274700, 10.585850) rotate(-45.000000) translate(-31.274700, -10.585850) " x="30.2747096" y="3.92891384" width="1.99998082" height="13.3138723"></rect>
                </g>
            </g>
        </g>
    </g>
</svg>