<?xml version="1.0" encoding="UTF-8"?>
<svg width="63px" height="39px" viewBox="0 0 63 39" version="1.1" xmlns="http://www.w3.org/2000/svg" xmlns:xlink="http://www.w3.org/1999/xlink">
    <title>payment-gateway</title>
    <g id="Welcome" stroke="none" stroke-width="1" fill="none" fill-rule="evenodd">
        <g id="Desktop-HD" transform="translate(-267.000000, -2835.000000)" fill-rule="nonzero">
            <g id="payment-gateway" transform="translate(267.000000, 2835.000000)">
                <g id="online-banking" transform="translate(0.000000, 3.000000)">
                    <rect id="Rectangle" fill="#867FE8" x="5" y="3" width="38" height="29"></rect>
                    <path d="M40,0 L8,0 C5.790861,0 4,1.790861 4,4 L4,29 L44,29 L44,4 C44,1.790861 42.209139,0 40,0 Z M6,26 L6,4 L42,4 L42,26 L6,26 Z" id="Shape" fill="#444444"></path>
                    <path d="M31,28 L31,31 L17,31 L17,28 L0,28 C0,32.418278 3.581722,36 8,36 L40,36 C44.418278,36 48,32.418278 48,28 L31,28 Z" id="Path" fill="#E6E6E6"></path>
                    <path d="M16,28 L32,28 L32,30 C32,30.5522847 31.5522847,31 31,31 L17,31 C16.4477153,31 16,30.5522847 16,30 L16,28 Z" id="Path" fill="#B3B3B3"></path>
                    <path d="M29.457,18.3 C29.4833507,19.3722624 29.0275435,20.3998471 28.215,21.1 C27.1888436,21.9127212 25.9360576,22.3874942 24.629,22.459 L24.629,25 L23.07,25 L23.07,22.527 C21.4365516,22.5553211 19.8142841,22.2525704 18.301,21.637 L18.301,19.164 C19.0548058,19.5212929 19.8441645,19.7981551 20.656,19.99 C21.4447412,20.1974971 22.2547297,20.3135932 23.07,20.336 L23.07,15.953 L22.086,15.59 C21.021378,15.2378007 20.0581419,14.6324752 19.279,13.826 C18.6806174,13.1188189 18.365656,12.2149081 18.395,11.289 C18.374186,10.2539337 18.8403192,9.26909297 19.654,8.629 C20.6416841,7.8771425 21.8308795,7.43641611 23.07,7.363 L23.07,5.4 L24.629,5.4 L24.629,7.333 C26.1784757,7.38003476 27.7068376,7.70555689 29.141,8.294 L28.285,10.439 C27.116795,9.96784489 25.8843189,9.67523297 24.629,9.571 L24.629,13.837 L25.52,14.177 C26.6678706,14.5415505 27.7205172,15.1563344 28.602,15.977 C29.1740095,16.6132448 29.4800481,17.4447392 29.457,18.3 L29.457,18.3 Z M21.148,11.269 C21.1353932,11.68019 21.2847843,12.0798829 21.564,12.382 C22.0004126,12.7751718 22.5130351,13.0743718 23.07,13.261 L23.07,9.613 C22.5483755,9.66363759 22.0523229,9.86323889 21.641,10.188 C21.322379,10.4545012 21.1411981,10.8506736 21.148,11.266 L21.148,11.269 Z M26.691,18.476 C26.7033873,18.0517913 26.5303273,17.6432384 26.217,17.357 C25.7449417,16.977666 25.2064529,16.6894321 24.629,16.507 L24.629,20.245 C26.0043333,20.0323333 26.6916667,19.4416667 26.691,18.473 L26.691,18.476 Z" id="Shape" fill="#FFFFFF"></path>
                </g>
                <g id="contactless-card" transform="translate(34.000000, 0.000000)">
                    <path d="M27.1086957,21 L1.89130435,21 C0.846765799,21 0,20.17041 0,19.1470588 L0,1.85294118 C0,0.829590022 0.846765799,0 1.89130435,0 L27.1086957,0 C28.1532342,0 29,0.829590022 29,1.85294118 L29,19.1470588 C29,20.17041 28.1532342,21 27.1086957,21 Z" id="Path" fill="#6CC4F5"></path>
                    <path d="M15.1304348,16.6764706 L4.41304348,16.6764706 C4.06486396,16.6764706 3.7826087,16.3999406 3.7826087,16.0588235 C3.7826087,15.7177065 4.06486396,15.4411765 4.41304348,15.4411765 L15.1304348,15.4411765 C15.4786143,15.4411765 15.7608696,15.7177065 15.7608696,16.0588235 C15.7608696,16.3999406 15.4786143,16.6764706 15.1304348,16.6764706 Z" id="Path" fill="#2A4B55"></path>
                    <path d="M24.5869565,16.6764706 L20.173913,16.6764706 C19.8257335,16.6764706 19.5434783,16.3999406 19.5434783,16.0588235 C19.5434783,15.7177065 19.8257335,15.4411765 20.173913,15.4411765 L24.5869565,15.4411765 C24.935136,15.4411765 25.2173913,15.7177065 25.2173913,16.0588235 C25.2173913,16.3999406 24.935136,16.6764706 24.5869565,16.6764706 Z" id="Path" fill="#2A4B55"></path>
                    <path d="M20.9222391,9.50744188 C20.6834481,9.50744188 20.4651517,9.37526324 20.3583611,9.16601428 C20.2515705,8.95676532 20.2746167,8.70636384 20.4178913,8.51920588 C20.9303618,7.86695977 20.9303618,6.95842259 20.4178913,6.30617647 C20.2827517,6.12964524 20.2540057,5.89588993 20.3424817,5.69296392 C20.4309577,5.4900379 20.623214,5.34877047 20.8468295,5.32237568 C21.0704451,5.2959809 21.2914474,5.38846877 21.426587,5.565 C22.2782176,6.65596522 22.2782176,8.17065243 21.426587,9.26161765 C21.3072632,9.4166794 21.1204515,9.50773306 20.9222391,9.50744188 Z" id="Path" fill="#FFFFFF"></path>
                    <ellipse id="Oval" fill="#FFFFFF" cx="17.6521739" cy="7.41176471" rx="1.26086957" ry="1.23529412"></ellipse>
                    <path d="M8.82608696,8.02941176 L4.41304348,8.02941176 C4.06486396,8.02941176 3.7826087,7.75288176 3.7826087,7.41176471 L3.7826087,4.32352941 C3.7826087,3.98241236 4.06486396,3.70588235 4.41304348,3.70588235 L8.82608696,3.70588235 C9.17426647,3.70588235 9.45652174,3.98241236 9.45652174,4.32352941 L9.45652174,7.41176471 C9.45652174,7.75288176 9.17426647,8.02941176 8.82608696,8.02941176 Z" id="Path" fill="#2A4B55"></path>
                    <path d="M23.4465,11.3647066 C23.2077089,11.3647066 22.9894126,11.2325279 22.882622,11.023279 C22.7758314,10.81403 22.7988775,10.5636285 22.9421522,10.3764706 C24.2931203,8.6245619 24.2931203,6.20699692 22.9421522,4.45508824 C22.8070126,4.278557 22.7782666,4.0448017 22.8667426,3.84187568 C22.9552185,3.63894967 23.1474748,3.49768223 23.3710904,3.47128745 C23.5947059,3.44489266 23.8157082,3.53738053 23.9508478,3.71391176 L23.9508478,3.71391176 C25.6384593,5.9053606 25.6384593,8.92743352 23.9508478,11.1188824 C23.8315241,11.2739441 23.6447124,11.3649978 23.4465,11.3647066 L23.4465,11.3647066 Z" id="Path" fill="#FFFFFF"></path>
                </g>
            </g>
        </g>
    </g>
</svg>