<?xml version="1.0" encoding="UTF-8"?>
<svg width="59px" height="56px" viewBox="0 0 59 56" version="1.1" xmlns="http://www.w3.org/2000/svg" xmlns:xlink="http://www.w3.org/1999/xlink">
    <title>sales-team</title>
    <g id="Welcome" stroke="none" stroke-width="1" fill="none" fill-rule="evenodd">
        <g id="Desktop-HD" transform="translate(-814.000000, -2755.000000)">
            <g id="sales-team" transform="translate(814.000000, 2755.000000)">
                <g id="transactions" transform="translate(5.000000, 0.000000)">
                    <path d="M19.687,9.219 C19.4718882,8.57318188 19.3522917,7.89939868 19.332,7.219 C10.9470002,10.1843244 5.33594703,18.1061175 5.32090848,27 C5.31125704,30.2828886 6.07958061,33.5213622 7.563,36.45 L8.013,37.344 L9.8,36.444 L9.348,35.552 C8.00698683,32.9012132 7.31238909,29.9706755 7.321,27 C7.33444296,19.0750418 12.2621078,11.989581 19.687,9.219 Z" id="Path" fill="#B8FFB5" fill-rule="nonzero"></path>
                    <path d="M43.28,35.634 L42.78,36.499 C39.9888813,41.3427032 35.2038821,44.7091453 29.7020412,45.6998776 C24.2002002,46.6906099 18.541443,45.204805 14.236,41.639 C13.7836519,42.1490767 13.2586933,42.5897993 12.678,42.947 C17.4172946,47.0103985 23.7199188,48.7522923 29.8732463,47.6993526 C36.0265738,46.646413 41.3914262,42.9080143 44.51,37.5 L45.01,36.634 L43.28,35.634 Z" id="Path" fill="#B8FFB5" fill-rule="nonzero"></path>
                    <circle id="Oval" fill="#5A7A84" fill-rule="nonzero" cx="8.5" cy="34.5" r="8.5"></circle>
                    <path d="M45.321,27 C45.3175,28.0580739 45.2261866,29.114032 45.048,30.157 C45.7152936,30.2928923 46.3591128,30.5256914 46.959,30.848 C48.1148098,24.7097702 46.4738947,18.3758237 42.4830808,13.5709132 C38.4922669,8.76600261 32.5670923,5.99043289 26.321,5.99997535 L25.321,5.99997535 L25.321,8 L26.321,8 C36.8096126,8.0115735 45.3094265,16.5113874 45.321,27 Z" id="Path" fill="#B8FFB5" fill-rule="nonzero"></path>
                    <g id="Group-12" transform="translate(33.000000, 29.000000)">
                        <ellipse id="Oval" fill="#5A7A84" fill-rule="nonzero" cx="10.030125" cy="6.66666667" rx="6.5625" ry="6.66666667"></ellipse>
                        <path d="M13.125,14.6666667 L7.875,14.6666667 C3.52575812,14.6666667 0,18.2483876 0,22.6666667 C0,23.4030456 0.583578056,24 1.31364463,24 L19.686359,24 C20.4118573,24 21,23.395752 21,22.6666667 C21,18.2483876 17.4742446,14.6666667 13.125,14.6666667 Z" id="Path-Copy" fill="#335262"></path>
                    </g>
                    <g id="Group-20" transform="translate(16.000000, 0.000000)">
                        <ellipse id="Oval" fill="#76B5B5" fill-rule="nonzero" cx="10.40125" cy="6.38888889" rx="6.25" ry="6.38888889"></ellipse>
                        <path d="M12.5,14.0555556 L7.5,14.0555556 C3.35786488,14.0555556 0,17.4880381 0,21.7222222 C0,22.4279187 0.555788625,23 1.25109013,23 L18.7489134,23 C19.4398641,23 20,22.420929 20,21.7222222 C20,17.4880381 16.6421377,14.0555556 12.5,14.0555556 Z" id="Path-Copy-2" fill="#5A7A84"></path>
                    </g>
                </g>
                <path d="M16.875,44 L10.125,44 C4.53311758,44 0,48.6050698 0,54.2857143 C0,55.2324872 0.750314644,56 1.68897167,56 L25.3110331,56 C26.2438166,56 27,55.2231097 27,54.2857143 C27,48.6050698 22.466886,44 16.875,44 Z" id="Path" fill="#335262"></path>
            </g>
        </g>
    </g>
</svg>