<?xml version="1.0" encoding="UTF-8"?>
<svg width="46px" height="42px" viewBox="0 0 46 42" version="1.1" xmlns="http://www.w3.org/2000/svg" xmlns:xlink="http://www.w3.org/1999/xlink">
    <title>seo-friendly</title>
    <g id="Welcome" stroke="none" stroke-width="1" fill="none" fill-rule="evenodd">
        <g id="Desktop-HD" transform="translate(-697.000000, -2844.000000)" fill-rule="nonzero">
            <g id="seo-friendly" transform="translate(697.000000, 2844.000000)">
                <g id="window-paragraph">
                    <path d="M44,42 L2,42 C0.895,42 0,41.105 0,40 L0,2 C0,0.895 0.895,0 2,0 L44,0 C45.105,0 46,0.895 46,2 L46,40 C46,41.105 45.105,42 44,42 Z" id="Path" fill="#444444"></path>
                    <rect id="Rectangle" fill="#FFFFFF" x="2" y="7" width="42" height="33"></rect>
                    <circle id="Oval" fill="#E86C60" cx="3.5" cy="3.5" r="1.5"></circle>
                    <circle id="Oval" fill="#EFD358" cx="8.5" cy="3.5" r="1.5"></circle>
                    <circle id="Oval" fill="#72C472" cx="13.5" cy="3.5" r="1.5"></circle>
                    <path d="M39,30 L7,30 C6.448,30 6,29.553 6,29 C6,28.447 6.448,28 7,28 L39,28 C39.552,28 40,28.447 40,29 C40,29.553 39.552,30 39,30 Z" id="Path" fill="#B3B3B3"></path>
                    <path d="M31,36 L7,36 C6.448,36 6,35.553 6,35 C6,34.447 6.448,34 7,34 L31,34 C31.552,34 32,34.447 32,35 C32,35.553 31.552,36 31,36 Z" id="Path" fill="#B3B3B3"></path>
                </g>
                <g id="google" transform="translate(5.000000, 10.000000)">
                    <path d="M7.61502721,3.06772085 C8.67232093,3.0670826 9.69571563,3.43499421 10.5038928,4.10627148 L12.7676337,1.98349717 C11.0057115,0.383715914 8.58109774,-0.304722099 6.2246766,0.125708342 C3.86825546,0.556138784 1.85570316,2.0550819 0.793690637,4.17069093 L3.34576424,6.10770544 C3.95615334,4.2952385 5.67584106,3.07071234 7.61502721,3.06772085 Z" id="Path" fill="#D94F3D"></path>
                    <path d="M3.11523651,7.49868841 C3.11587569,7.02585794 3.1937115,6.55620385 3.34576424,6.10770544 L0.793690637,4.17069093 C-0.264563546,6.26699554 -0.264563546,8.73038127 0.793690637,10.8266859 L3.34576424,8.88967138 C3.1937115,8.44117296 3.11587569,7.97151887 3.11523651,7.49868841 L3.11523651,7.49868841 Z" id="Path" fill="#F2C042"></path>
                    <path d="M14.9185337,6.13531377 L7.64964099,6.13531377 L7.64964099,9.2029067 L11.7686802,9.2029067 C11.5236508,10.0702686 10.9622497,10.8181158 10.1920227,11.3031853 L12.7243665,13.2255436 C14.3425605,11.7953636 15.2934009,9.46978728 14.9185337,6.13531377 Z" id="Path" fill="#5085ED"></path>
                    <path d="M10.1909843,11.3031853 C9.40838043,11.7442685 8.51618451,11.9612498 7.61502721,11.929656 C5.67584106,11.9266645 3.95615334,10.7021383 3.34576424,8.88967138 L0.793690637,10.8266859 C2.07946409,13.3789363 4.72173957,14.9944227 7.61502721,14.9972489 C9.48152582,15.0471811 11.3008896,14.4159307 12.7233281,13.2248619 L10.1909843,11.3031853 Z" id="Path" fill="#57A75C"></path>
                </g>
            </g>
        </g>
    </g>
</svg>