<?xml version="1.0" encoding="UTF-8"?>
<svg width="87px" height="47px" viewBox="0 0 87 47" version="1.1" xmlns="http://www.w3.org/2000/svg" xmlns:xlink="http://www.w3.org/1999/xlink">
    <title>telegram-bot</title>
    <defs>
        <linearGradient x1="50%" y1="100%" x2="50%" y2="0%" id="linearGradient-1">
            <stop stop-color="#1D93D2" offset="0%"></stop>
            <stop stop-color="#38B0E3" offset="100%"></stop>
        </linearGradient>
    </defs>
    <g id="Welcome" stroke="none" stroke-width="1" fill="none" fill-rule="evenodd">
        <g id="Desktop-HD" transform="translate(-245.000000, -2761.000000)">
            <g id="telegram-bot" transform="translate(245.000000, 2761.000000)">
                <g id="telegram" fill-rule="nonzero">
                    <circle id="Oval" fill="url(#linearGradient-1)" cx="23" cy="23" r="23"></circle>
                    <path d="M15.569,24.681 L18.3,32.234 C18.3,32.234 18.641,32.941 19.006,32.941 C19.371,32.941 24.806,27.288 24.806,27.288 L30.848,15.618 L15.666,22.732 L15.569,24.681 Z" id="Path" fill="#C8DAEA"></path>
                    <path d="M19.187,26.618 L18.663,32.185 C18.663,32.185 18.444,33.891 20.149,32.185 C21.854,30.479 23.487,29.164 23.487,29.164 L19.187,26.618 Z" id="Path" fill="#A9C6D8"></path>
                    <path d="M15.618,24.951 L10.006,23.122 C10.006,23.122 9.336,22.85 9.551,22.233 C9.595,22.105 9.685,21.997 9.951,21.81 C11.195,20.943 32.971,13.116 32.971,13.116 C33.2849223,13.0057546 33.6227083,12.9819231 33.949,13.047 C34.131736,13.1036846 34.2699602,13.2541275 34.311,13.441 C34.3498266,13.6029842 34.3659808,13.7695739 34.359,13.936 C34.359,14.08 34.34,14.214 34.327,14.424 C34.194,16.563 30.227,32.535 30.227,32.535 C30.227,32.535 29.99,33.469 29.139,33.501 C28.7155515,33.5160637 28.3042527,33.3578996 28,33.063 C26.33,31.626 20.559,27.748 19.284,26.895 C19.2278919,26.8547906 19.1915326,26.7926161 19.184,26.724 C19.166,26.634 19.264,26.524 19.264,26.524 C19.264,26.524 29.312,17.592 29.579,16.655 C29.6,16.583 29.522,16.547 29.417,16.578 C28.749,16.824 17.18,24.129 15.903,24.936 C15.8104715,24.9631676 15.7128692,24.9683046 15.618,24.951 Z" id="Path" fill="#FFFFFF"></path>
                </g>
                <g id="Group-11" transform="translate(40.000000, 0.000000)" fill="#D8D8D8" stroke="#C4C4C4" stroke-width="1.56006">
                    <circle id="Oval" cx="23.5" cy="23.5" r="22.71997"></circle>
                </g>
                <g id="robot" transform="translate(45.888889, 5.888889)" fill-rule="nonzero">
                    <path d="M1.55555556,16.3671498 L3.88888889,16.3671498 L3.88888889,25.294686 L1.55555556,25.294686 C0.696445945,25.294686 0,24.6285203 0,23.8067633 L0,17.8550725 C0,17.0333154 0.696445945,16.3671498 1.55555556,16.3671498 Z" id="Path" fill="#B3B3B3"></path>
                    <path d="M31.8888889,16.3671498 L34.2222222,16.3671498 L34.2222222,25.294686 L31.8888889,25.294686 C31.0297793,25.294686 30.3333333,24.6285203 30.3333333,23.8067633 L30.3333333,17.8550725 C30.3333333,17.0333154 31.0297793,16.3671498 31.8888889,16.3671498 Z" id="Path" fill="#B3B3B3" transform="translate(32.277778, 20.830918) rotate(-180.000000) translate(-32.277778, -20.830918) "></path>
                    <path d="M25.6666667,34.2222222 L8.55555556,34.2222222 C7.69644594,34.2222222 7,33.5560565 7,32.7342995 L7,30.5024155 L27.2222222,30.5024155 L27.2222222,32.7342995 C27.2222222,33.5560565 26.5257763,34.2222222 25.6666667,34.2222222 Z" id="Path" fill="#B3B3B3"></path>
                    <path d="M10.1111111,11.1594203 L10.1111111,3.71980676 C10.1111111,3.30892825 10.4593341,2.97584541 10.8888889,2.97584541 C11.3184437,2.97584541 11.6666667,3.30892825 11.6666667,3.71980676 L11.6666667,11.1594203 C11.6666667,11.5702988 11.3184437,11.9033816 10.8888889,11.9033816 C10.4593341,11.9033816 10.1111111,11.5702988 10.1111111,11.1594203 Z" id="Path" fill="#444444"></path>
                    <path d="M22.5555556,11.1594203 L22.5555556,3.71980676 C22.5555556,3.30892825 22.9037785,2.97584541 23.3333333,2.97584541 C23.7628881,2.97584541 24.1111111,3.30892825 24.1111111,3.71980676 L24.1111111,11.1594203 C24.1111111,11.5702988 23.7628881,11.9033816 23.3333333,11.9033816 C22.9037785,11.9033816 22.5555556,11.5702988 22.5555556,11.1594203 Z" id="Path" fill="#444444"></path>
                    <ellipse id="Oval" fill="#84C459" cx="10.8888889" cy="2.97584541" rx="3.11111111" ry="2.97584541"></ellipse>
                    <ellipse id="Oval" fill="#FA645A" cx="23.3333333" cy="2.97584541" rx="3.11111111" ry="2.97584541"></ellipse>
                    <rect id="Rectangle" fill="#E0E0E0" x="3.11111111" y="8.92753623" width="28" height="23.8067633" rx="1.5623928"></rect>
                    <ellipse id="Oval" fill="#FFFFFF" cx="10.8888889" cy="17.1111111" rx="3.11111111" ry="2.97584541"></ellipse>
                    <path d="M10.8888889,20.8309179 C8.74111486,20.8309179 7,19.1655037 7,17.1111111 C7,15.0567186 8.74111486,13.3913043 10.8888889,13.3913043 C13.0366629,13.3913043 14.7777778,15.0567186 14.7777778,17.1111111 C14.7752064,19.164484 13.0355969,20.8284583 10.8888889,20.8309179 Z M10.8888889,14.8792271 C9.60022447,14.8792271 8.55555556,15.8784756 8.55555556,17.1111111 C8.55555556,18.3437466 9.60022447,19.3429952 10.8888889,19.3429952 C12.1775533,19.3429952 13.2222222,18.3437466 13.2222222,17.1111111 C13.2222222,15.8784756 12.1775533,14.8792271 10.8888889,14.8792271 Z" id="Shape" fill="#444444"></path>
                    <ellipse id="Oval" fill="#FFFFFF" cx="23.3333333" cy="17.1111111" rx="3.11111111" ry="2.97584541"></ellipse>
                    <path d="M23.3333333,20.8309179 C21.1855593,20.8309179 19.4444444,19.1655037 19.4444444,17.1111111 C19.4444444,15.0567186 21.1855593,13.3913043 23.3333333,13.3913043 C25.4811074,13.3913043 27.2222222,15.0567186 27.2222222,17.1111111 C27.2196508,19.164484 25.4800413,20.8284583 23.3333333,20.8309179 Z M23.3333333,14.8792271 C22.0446689,14.8792271 21,15.8784756 21,17.1111111 C21,18.3437466 22.0446689,19.3429952 23.3333333,19.3429952 C24.6219977,19.3429952 25.6666667,18.3437466 25.6666667,17.1111111 C25.6666667,15.8784756 24.6219977,14.8792271 23.3333333,14.8792271 Z" id="Shape" fill="#444444"></path>
                    <rect id="Rectangle" fill="#FFFFFF" x="7" y="25.294686" width="20.2222222" height="4.46376812"></rect>
                    <path d="M27.2222222,30.5024155 L7,30.5024155 C6.57044519,30.5024155 6.22222222,30.1693326 6.22222222,29.7584541 L6.22222222,25.294686 C6.22222222,24.8838075 6.57044519,24.5507246 7,24.5507246 L27.2222222,24.5507246 C27.651777,24.5507246 28,24.8838075 28,25.294686 L28,29.7584541 C28,30.1693326 27.651777,30.5024155 27.2222222,30.5024155 Z M7.77777778,29.0144928 L26.4444444,29.0144928 L26.4444444,26.0386473 L7.77777778,26.0386473 L7.77777778,29.0144928 Z" id="Shape" fill="#444444"></path>
                </g>
            </g>
        </g>
    </g>
</svg>