<?xml version="1.0" encoding="UTF-8"?>
<svg width="34px" height="46px" viewBox="0 0 34 46" version="1.1" xmlns="http://www.w3.org/2000/svg" xmlns:xlink="http://www.w3.org/1999/xlink">
    <title>themes</title>
    <g id="Welcome" stroke="none" stroke-width="1" fill="none" fill-rule="evenodd">
        <g id="Desktop-HD" transform="translate(-600.000000, -2757.000000)" fill-rule="nonzero">
            <g id="themes" transform="translate(600.000000, 2757.000000)">
                <path d="M18.985,42.962 C18.86,42.962 18.735,42.939 18.613,42.89 C18.158,42.708 17.903,42.223 18.009,41.744 L24.238,13.842 C24.308,13.528 24.525,13.267 24.821,13.14 C25.117,13.014 25.456,13.039 25.731,13.203 L33.516,17.905 C33.743,18.043 33.906,18.264 33.97,18.522 C34.034,18.779 33.992,19.051 33.855,19.278 L19.84,42.478 C19.656,42.786 19.327,42.962 18.985,42.962 Z" id="Path" fill="#E86C60"></path>
                <path d="M19.012,40.688 C18.972,40.688 18.932,40.686 18.891,40.681 C18.39,40.62 18.012,40.196 18.011,39.691 L17.9099947,5.439 C17.909,5.131 18.05,4.839 18.293,4.649 C18.535,4.459 18.852,4.391 19.15,4.465 L27.24,6.469 C27.498,6.532 27.719,6.697 27.856,6.923 C27.993,7.151 28.034,7.423 27.97,7.68 L19.981,39.928 C19.87,40.38 19.465,40.688 19.012,40.688 Z" id="Path" fill="#EA9860"></path>
                <path d="M20,1 C20,0.447 19.552,0 19,0 L1,0 C0.448,0 0,0.447 0,1 L0,32 L20,32 L20,1 Z" id="Path" fill="#EFD358"></path>
                <path d="M1,46 L19,46 C19.552,46 20,45.553 20,45 L20,32 L0,32 L0,45 C0,45.553 0.448,46 1,46 Z" id="Path" fill="#E6E6E6"></path>
                <circle id="Oval" fill="#B3B3B3" cx="10" cy="39" r="3"></circle>
            </g>
        </g>
    </g>
</svg>