<?xml version="1.0" encoding="UTF-8"?>
<svg width="160px" height="65px" viewBox="0 0 160 65" version="1.1" xmlns="http://www.w3.org/2000/svg" xmlns:xlink="http://www.w3.org/1999/xlink">
    <title>user-review</title>
    <g id="Welcome" stroke="none" stroke-width="1" fill="none" fill-rule="evenodd">
        <g id="Desktop-HD" transform="translate(-740.000000, -2856.000000)">
            <g id="user-review" transform="translate(740.000000, 2856.000000)">
                <g id="woman-24" transform="translate(0.000000, 18.000000)">
                    <path d="M7,41 L7,13 C7,5.8199997 12.8199997,0 20,0 C27.1800003,0 33,5.8199997 33,13 L33,41 L7,41 Z" id="Path" fill="#444444"></path>
                    <rect id="Rectangle" fill="#EAC3A2" x="14" y="23" width="12" height="15"></rect>
                    <path d="M36.6829987,38.3419991 L26,33 C24.3120003,34.25 22.2460003,35 20,35 C17.7539997,35 15.6879997,34.25 14.0179996,33 L3.3169999,38.3419991 C1.2839999,39.3580017 0,41.4360008 0,43.7080002 L0,45.9944039 C0,46.549778 0.4492188,47 1.0087748,47 L38.9912196,47 C39.5483589,47 40,46.5560265 40,45.9944038 L40,43.7080001 C40,41.4360008 38.7159996,39.3580017 36.6829987,38.3419991 Z" id="Path" fill="#8680D8"></path>
                    <path d="M9,16 L9,18 C9,24.0650005 13.9350014,29 20,29 C26.0649986,29 31,24.0650005 31,18 L31,16 C31,14.3431492 29.6568527,13 28,13 C24.5170708,13 21.4962292,11.0215607 20,8.1272011 C18.5037708,11.0215607 15.4829292,13 12,13 C10.3431501,13 9,14.3431492 9,16 Z" id="Path" fill="#F1D9C5"></path>
                    <path d="M11.5362549,34.2388916 L13.4830322,38.7365723 C13.7390747,39.3623047 14.5293579,39.558899 15.048706,39.1260376 L20,35 C17.7540283,35 15.6879883,34.25 14.0180054,33 L11.5362549,34.2388916 Z" id="Path" fill="#FFFFFF" fill-rule="nonzero"></path>
                    <path d="M26,33 C24.3120117,34.25 22.2460327,35 20,35 L24.951355,39.1260986 C25.4707031,39.5588989 26.2609863,39.3623047 26.5170288,38.7366333 L28.4662476,34.2332153 L26,33 Z" id="Path" fill="#FFFFFF" fill-rule="nonzero"></path>
                </g>
                <g id="subtitles" transform="translate(26.000000, 0.000000)" fill-rule="nonzero">
                    <path d="M44,0 L2,0 C0.8954305,0 0,0.8954305 0,2 L0,32 C0,33.1045695 0.8954305,34 2,34 L10,34 L10,43 C10,43.5522847 10.4477153,44 11,44 C11.2085491,44.0005485 11.4119234,43.9350906 11.581,43.813 L25.32,34 L44,34 C45.1045695,34 46,33.1045695 46,32 L46,2 C46,0.8954305 45.1045695,0 44,0 Z" id="Path" fill="#EA9860"></path>
                    <path d="M20,17 L7,17 C6.44771525,17 6,16.5522847 6,16 C6,15.4477153 6.44771525,15 7,15 L20,15 C20.5522847,15 21,15.4477153 21,16 C21,16.5522847 20.5522847,17 20,17 Z" id="Path" fill="#FFFFFF"></path>
                    <path d="M39,17 L26,17 C25.4477153,17 25,16.5522847 25,16 C25,15.4477153 25.4477153,15 26,15 L39,15 C39.5522847,15 40,15.4477153 40,16 C40,16.5522847 39.5522847,17 39,17 Z" id="Path" fill="#FFFFFF"></path>
                    <path d="M29,11 L7,11 C6.44771525,11 6,10.5522847 6,10 C6,9.44771525 6.44771525,9 7,9 L29,9 C29.5522847,9 30,9.44771525 30,10 C30,10.5522847 29.5522847,11 29,11 Z" id="Path" fill="#FFFFFF"></path>
                    <path d="M39,11 L35,11 C34.4477153,11 34,10.5522847 34,10 C34,9.44771525 34.4477153,9 35,9 L39,9 C39.5522847,9 40,9.44771525 40,10 C40,10.5522847 39.5522847,11 39,11 Z" id="Path" fill="#FFFFFF"></path>
                </g>
                <g id="Group-4" transform="translate(49.000000, 36.000000)" fill="#FFD764" fill-rule="nonzero">
                    <g id="star-rate">
                        <path d="M15.1882257,5.91165699 L9.85212474,5.91165699 L8.08422488,0.239249292 C8.03869974,0.0964913089 7.90938343,0 7.7635863,0 C7.61778917,0 7.48847286,0.0964913089 7.44294772,0.239249292 L5.6736978,5.91165699 L0.337596825,5.91165699 C0.19323107,5.91162963 0.064833008,6.00624154 0.0181521118,6.14704431 C-0.0285287844,6.28784707 0.0168447612,6.44366054 0.131038078,6.53469649 L4.38776834,9.93097494 L2.61649333,15.5445922 C2.57128662,15.6879396 2.62079069,15.8449862 2.73910824,15.9335752 C2.85742579,16.0221643 3.0176362,16.0221394 3.13592783,15.9335136 L7.76291127,12.4690521 L12.3898947,15.9335136 C12.5081863,16.0221394 12.6683967,16.0221643 12.7867143,15.9335752 C12.9050318,15.8449862 12.9545359,15.6879396 12.9093292,15.5445922 L11.1380542,9.93097494 L15.3934344,6.53469649 C15.5074335,6.44381757 15.5528694,6.28835867 15.5065413,6.14770079 C15.4602132,6.00704291 15.3323436,5.91222246 15.1882257,5.91165699 Z" id="Path"></path>
                    </g>
                    <g id="star-rate-copy" transform="translate(24.839161, 0.000000)">
                        <path d="M15.1882257,5.91165699 L9.85212474,5.91165699 L8.08422488,0.239249292 C8.03869974,0.0964913089 7.90938343,0 7.7635863,0 C7.61778917,0 7.48847286,0.0964913089 7.44294772,0.239249292 L5.6736978,5.91165699 L0.337596825,5.91165699 C0.19323107,5.91162963 0.064833008,6.00624154 0.0181521118,6.14704431 C-0.0285287844,6.28784707 0.0168447612,6.44366054 0.131038078,6.53469649 L4.38776834,9.93097494 L2.61649333,15.5445922 C2.57128662,15.6879396 2.62079069,15.8449862 2.73910824,15.9335752 C2.85742579,16.0221643 3.0176362,16.0221394 3.13592783,15.9335136 L7.76291127,12.4690521 L12.3898947,15.9335136 C12.5081863,16.0221394 12.6683967,16.0221643 12.7867143,15.9335752 C12.9050318,15.8449862 12.9545359,15.6879396 12.9093292,15.5445922 L11.1380542,9.93097494 L15.3934344,6.53469649 C15.5074335,6.44381757 15.5528694,6.28835867 15.5065413,6.14770079 C15.4602132,6.00704291 15.3323436,5.91222246 15.1882257,5.91165699 Z" id="Path"></path>
                    </g>
                    <g id="star-rate-copy-2" transform="translate(47.737762, 0.000000)">
                        <path d="M15.1882257,5.91165699 L9.85212474,5.91165699 L8.08422488,0.239249292 C8.03869974,0.0964913089 7.90938343,0 7.7635863,0 C7.61778917,0 7.48847286,0.0964913089 7.44294772,0.239249292 L5.6736978,5.91165699 L0.337596825,5.91165699 C0.19323107,5.91162963 0.064833008,6.00624154 0.0181521118,6.14704431 C-0.0285287844,6.28784707 0.0168447612,6.44366054 0.131038078,6.53469649 L4.38776834,9.93097494 L2.61649333,15.5445922 C2.57128662,15.6879396 2.62079069,15.8449862 2.73910824,15.9335752 C2.85742579,16.0221643 3.0176362,16.0221394 3.13592783,15.9335136 L7.76291127,12.4690521 L12.3898947,15.9335136 C12.5081863,16.0221394 12.6683967,16.0221643 12.7867143,15.9335752 C12.9050318,15.8449862 12.9545359,15.6879396 12.9093292,15.5445922 L11.1380542,9.93097494 L15.3934344,6.53469649 C15.5074335,6.44381757 15.5528694,6.28835867 15.5065413,6.14770079 C15.4602132,6.00704291 15.3323436,5.91222246 15.1882257,5.91165699 Z" id="Path"></path>
                    </g>
                    <g id="star-rate-copy-3" transform="translate(72.576923, 0.000000)">
                        <path d="M15.1882257,5.91165699 L9.85212474,5.91165699 L8.08422488,0.239249292 C8.03869974,0.0964913089 7.90938343,0 7.7635863,0 C7.61778917,0 7.48847286,0.0964913089 7.44294772,0.239249292 L5.6736978,5.91165699 L0.337596825,5.91165699 C0.19323107,5.91162963 0.064833008,6.00624154 0.0181521118,6.14704431 C-0.0285287844,6.28784707 0.0168447612,6.44366054 0.131038078,6.53469649 L4.38776834,9.93097494 L2.61649333,15.5445922 C2.57128662,15.6879396 2.62079069,15.8449862 2.73910824,15.9335752 C2.85742579,16.0221643 3.0176362,16.0221394 3.13592783,15.9335136 L7.76291127,12.4690521 L12.3898947,15.9335136 C12.5081863,16.0221394 12.6683967,16.0221643 12.7867143,15.9335752 C12.9050318,15.8449862 12.9545359,15.6879396 12.9093292,15.5445922 L11.1380542,9.93097494 L15.3934344,6.53469649 C15.5074335,6.44381757 15.5528694,6.28835867 15.5065413,6.14770079 C15.4602132,6.00704291 15.3323436,5.91222246 15.1882257,5.91165699 Z" id="Path"></path>
                    </g>
                    <g id="star-rate-copy-4" transform="translate(95.475524, 0.000000)">
                        <path d="M15.1882257,5.91165699 L9.85212474,5.91165699 L8.08422488,0.239249292 C8.03869974,0.0964913089 7.90938343,0 7.7635863,0 C7.61778917,0 7.48847286,0.0964913089 7.44294772,0.239249292 L5.6736978,5.91165699 L0.337596825,5.91165699 C0.19323107,5.91162963 0.064833008,6.00624154 0.0181521118,6.14704431 C-0.0285287844,6.28784707 0.0168447612,6.44366054 0.131038078,6.53469649 L4.38776834,9.93097494 L2.61649333,15.5445922 C2.57128662,15.6879396 2.62079069,15.8449862 2.73910824,15.9335752 C2.85742579,16.0221643 3.0176362,16.0221394 3.13592783,15.9335136 L7.76291127,12.4690521 L12.3898947,15.9335136 C12.5081863,16.0221394 12.6683967,16.0221643 12.7867143,15.9335752 C12.9050318,15.8449862 12.9545359,15.6879396 12.9093292,15.5445922 L11.1380542,9.93097494 L15.3934344,6.53469649 C15.5074335,6.44381757 15.5528694,6.28835867 15.5065413,6.14770079 C15.4602132,6.00704291 15.3323436,5.91222246 15.1882257,5.91165699 Z" id="Path"></path>
                    </g>
                </g>
            </g>
        </g>
    </g>
</svg>